<?xml version="1.0" standalone="no"?>
<!DOCTYPE svg PUBLIC "-//W3C//DTD SVG 20010904//EN"
 "http://www.w3.org/TR/2001/REC-SVG-20010904/DTD/svg10.dtd">
<svg version="1.0" xmlns="http://www.w3.org/2000/svg"
 width="7500.000000pt" height="5000.000000pt" viewBox="0 0 7500.000000 5000.000000"
 preserveAspectRatio="xMidYMid meet">

<g transform="translate(0.000000,5000.000000) scale(0.100000,-0.100000)"
fill="#000000" stroke="none">
<path d="M25325 41904 c-520 -239 -1517 -638 -2250 -901 -488 -176 -1132 -380
-1305 -414 l-61 -12 6 -51 c56 -426 234 -1006 421 -1378 23 -45 44 -109 56
-168 18 -90 19 -128 13 -700 -3 -333 -10 -866 -15 -1185 -5 -319 -10 -730 -10
-912 l0 -333 -345 0 -345 0 -28 50 -27 50 -572 0 -573 0 -37 -77 c-37 -76 -39
-78 -93 -95 -30 -10 -64 -22 -75 -28 -11 -5 -49 -21 -85 -36 -567 -232 -1143
-763 -1635 -1509 -444 -673 -804 -1465 -1195 -2635 -156 -465 -360 -1153 -360
-1213 0 -13 16 -102 35 -198 179 -885 289 -1940 257 -2455 -14 -226 -27 -288
-77 -359 -139 -203 -435 -380 -885 -530 l-125 -42 3 -74 c6 -166 54 -1278 77
-1769 13 -288 23 -526 21 -528 -2 -2 -37 4 -77 13 -61 13 -164 17 -576 22
-275 3 -513 3 -527 -1 l-26 -6 0 -1045 0 -1044 -77 -36 c-217 -100 -626 -250
-940 -345 l-101 -30 86 -88 c88 -88 148 -177 180 -264 l17 -48 67 7 c78 7 94
-1 104 -53 13 -69 -20 -123 -82 -133 l-39 -7 3 -79 c15 -395 -198 -731 -537
-845 -47 -15 -184 -33 -559 -71 -273 -28 -520 -51 -549 -51 -71 -1 -118 29
-149 96 -34 73 -29 131 18 199 39 55 52 57 605 113 428 43 530 56 568 73 166
74 265 233 265 427 0 46 -3 84 -7 84 -5 0 -103 -14 -220 -32 -203 -30 -213
-31 -232 -14 -38 35 -33 127 10 163 8 6 97 24 199 39 102 15 187 29 189 30 2
2 -13 26 -34 54 -75 102 -195 163 -319 162 -34 -1 -264 -21 -513 -46 -249 -25
-472 -46 -496 -46 -50 0 -100 28 -132 75 l-20 30 -280 2 c-636 4 -1259 81
-1868 230 -156 38 -187 48 -182 62 13 43 58 270 85 429 46 264 63 444 63 657
0 205 -14 315 -57 465 -59 207 -71 355 -63 775 11 540 79 1229 202 2025 19
124 35 229 35 232 0 8 -74 24 -224 48 -630 99 -1310 90 -1904 -27 l-132 -26 5
-31 c7 -42 41 -357 57 -531 20 -214 17 -711 -5 -860 -40 -268 -93 -431 -228
-690 -192 -372 -283 -686 -336 -1158 -23 -209 -23 -684 1 -937 40 -441 119
-882 246 -1389 78 -308 145 -542 352 -1221 74 -243 119 -426 125 -505 4 -60
-6 -120 -71 -435 -42 -200 -76 -368 -76 -372 0 -4 -240 -8 -532 -8 -481 0
-542 -2 -623 -19 -357 -74 -626 -325 -727 -677 -22 -77 -22 -93 -26 -643 l-3
-564 -166 -176 c-200 -212 -333 -352 -543 -576 -934 -994 -1131 -1206 -1162
-1247 -47 -62 -91 -153 -115 -238 -16 -58 -18 -108 -18 -475 l0 -410 28 -57
c44 -89 142 -158 224 -158 21 0 23 -4 24 -57 1 -32 4 -346 8 -698 l6 -640 30
-59 c54 -107 145 -181 260 -210 52 -14 212 -16 1312 -16 l1253 0 0 -1535 0
-1535 -165 0 -165 0 2 -2297 3 -2298 1392 -3 1392 -2 6 -33 c2 -17 12 -75 20
-127 19 -117 64 -359 71 -382 6 -19 108 -54 316 -108 569 -149 1101 -163 1479
-40 105 35 262 113 334 168 39 29 54 48 67 87 22 67 38 207 38 333 l0 102 368
0 368 0 11 -91 c6 -50 14 -94 19 -99 17 -16 1755 -84 2834 -111 530 -13 1585
-7 1674 10 32 7 70 18 85 26 34 17 77 95 94 171 l14 59 514 7 c283 3 668 11
856 17 242 8 6382 11 21155 11 13402 0 20852 4 20923 10 111 10 245 35 278 52
10 5 31 12 45 14 63 11 264 116 335 174 7 5 32 26 57 46 25 21 44 43 44 50 -1
7 4 10 11 8 10 -4 44 28 110 106 11 13 45 60 76 103 l55 79 615 -1 c592 -2
878 7 964 30 72 19 113 75 141 196 33 137 -1 473 -53 524 -10 11 -119 55 -241
99 -278 100 -474 179 -577 234 -44 23 -197 117 -340 208 -532 338 -823 501
-1078 603 -162 64 -246 78 -357 59 -81 -14 -124 -30 -416 -153 -144 -60 -311
-105 -470 -126 -152 -20 -530 -20 -679 0 -143 19 -191 19 -240 -4 -52 -23 -58
-32 -80 -125 -10 -43 -25 -80 -32 -83 -7 -3 -10 -10 -6 -17 3 -6 1 -6 -8 2
-10 9 -205 12 -906 12 l-893 0 -9 22 c-4 13 -11 44 -15 69 -7 50 -21 66 -74
94 -27 13 -55 16 -135 13 -204 -6 -484 -1 -587 11 -286 34 -454 85 -731 222
-275 136 -298 144 -439 143 -106 0 -124 -3 -230 -38 -227 -76 -550 -226 -936
-437 l-181 -99 -3791 -2 -3792 -3 0 2622 0 2623 1298 2 1297 3 67 33 c73 36
123 86 160 161 18 37 23 63 23 136 0 106 16 74 -276 575 -100 173 -264 457
-364 630 -100 173 -213 369 -252 435 -39 66 -174 300 -300 520 -127 220 -312
542 -413 715 -100 173 -196 340 -213 370 -16 30 -69 123 -117 205 -267 459
-480 827 -480 829 0 2 -46 81 -101 177 -56 96 -133 228 -171 294 -78 135 -117
180 -192 221 -46 26 -60 29 -146 29 -162 0 -228 -47 -341 -245 -36 -63 -116
-200 -176 -305 -61 -104 -195 -336 -298 -515 -103 -179 -228 -395 -277 -480
-50 -85 -103 -177 -118 -205 -15 -27 -110 -192 -210 -365 -637 -1099 -1511
-2613 -1561 -2705 -44 -79 -44 -81 -44 -180 0 -90 3 -105 28 -152 36 -70 88
-120 156 -152 l56 -26 1273 -3 1272 -2 0 -2623 0 -2622 -6728 2 c-3700 2
-6749 3 -6777 3 l-50 0 80 51 c218 140 381 371 435 617 24 106 26 297 6 404
-72 375 -350 674 -721 775 l-100 27 -791 4 -792 3 -7 172 c-4 95 -5 188 -3
207 l3 35 308 3 307 2 0 165 0 165 611 0 611 0 -5 22 c-3 13 -38 187 -77 388
-39 201 -96 482 -127 625 -61 285 -64 340 -26 426 11 24 193 285 405 579 211
294 586 816 833 1160 246 344 510 711 585 815 153 213 636 886 961 1340 119
165 377 525 574 800 197 275 517 721 710 990 193 270 502 699 685 955 184 256
371 517 416 580 45 63 96 131 112 150 l29 34 7 -409 c4 -226 36 -1821 70
-3545 35 -1724 61 -3137 59 -3140 -3 -3 -41 -8 -86 -11 -92 -6 -130 -21 -161
-62 -20 -27 -21 -39 -20 -335 1 -269 3 -312 18 -341 26 -49 66 -61 203 -61
l118 0 12 -61 c24 -127 94 -221 269 -361 105 -84 164 -183 164 -274 0 -98 -77
-212 -172 -255 -73 -33 -211 -34 -280 -2 -96 44 -169 135 -205 256 -13 44 -17
48 -39 43 -13 -4 -45 -9 -70 -13 -25 -3 -48 -12 -51 -19 -2 -7 1 -39 7 -71 50
-245 271 -399 544 -380 388 27 562 414 324 719 -29 37 -97 104 -150 148 -101
84 -146 139 -167 203 -18 54 -6 63 90 70 111 9 150 29 167 87 19 67 13 593 -8
635 -21 42 -71 63 -167 71 l-83 7 0 181 c0 335 55 3465 100 5656 42 2049 38
1938 66 2105 16 93 23 167 20 194 -21 155 -165 287 -325 299 -81 5 -134 -15
-265 -102 -156 -104 -207 -160 -661 -721 -669 -827 -734 -898 -1065 -1179 -85
-72 -294 -250 -465 -396 -580 -496 -726 -612 -1050 -840 -534 -375 -789 -569
-1990 -1515 -412 -325 -806 -634 -875 -688 -69 -53 -169 -131 -222 -172 -158
-123 4 -109 -1388 -115 l-1215 -5 -1 -950 c0 -522 -2 -975 -2 -1006 l-2 -57
-115 -41 c-64 -22 -127 -44 -140 -47 l-24 -6 -3 484 -3 483 -45 115 -44 115
-7 545 c-7 591 -8 605 -64 709 -50 90 -133 142 -260 161 -114 16 -105 22 -105
-78 l0 -88 63 -23 c89 -31 121 -53 143 -97 18 -37 19 -66 19 -570 l0 -531 -55
-60 c-86 -92 -85 -85 -85 -553 0 -223 -1 -482 -2 -577 l-3 -171 -72 -6 c-40
-3 -145 -10 -233 -16 -88 -6 -194 -13 -235 -15 -100 -7 -817 -43 -1053 -53
-254 -11 -251 -10 -317 -259 -56 -212 -60 -222 -54 -138 111 1606 181 2489
279 3560 211 2287 315 3587 450 5595 19 283 46 700 60 925 13 226 27 444 29
485 3 41 8 122 11 180 3 58 7 130 10 160 2 30 9 161 16 290 13 258 9 298 -47
419 -22 48 -23 56 -9 71 51 56 94 325 96 595 0 61 3 118 7 127 4 10 27 30 52
46 25 16 104 86 177 156 175 168 197 217 242 531 51 356 65 744 58 1580 -6
642 -11 858 -37 1413 -7 129 -10 236 -7 238 2 2 79 17 171 34 973 176 2165
634 2982 1146 531 332 834 648 834 867 0 29 -7 92 -16 140 -9 50 -13 92 -8 96
13 12 531 331 719 444 l160 96 305 -11 c447 -16 1016 -16 1115 0 266 44 462
140 521 253 19 37 20 102 4 144 -38 95 -30 164 31 249 76 107 87 174 44 276
-36 85 -34 148 7 230 45 90 45 168 0 260 -54 109 -40 193 46 293 48 55 56 80
50 142 -8 66 -46 134 -109 197 -138 135 -312 168 -896 168 l-322 0 72 113
c150 230 265 447 319 597 20 57 23 83 23 220 0 174 -12 232 -65 312 -47 70
-90 93 -175 93 -58 0 -80 -5 -130 -30 -90 -45 -97 -60 -106 -217 -9 -165 -32
-239 -112 -358 -82 -121 -184 -214 -322 -290 -173 -96 -309 -219 -359 -323
-14 -29 -43 -117 -65 -197 -73 -269 -125 -377 -230 -480 -128 -125 -360 -266
-642 -390 -146 -64 -312 -130 -328 -130 -5 0 -12 15 -15 33 -20 106 -117 177
-255 185 -315 18 -851 -228 -1911 -876 -711 -436 -908 -542 -1003 -542 -182 0
-318 593 -442 1925 -13 149 -47 563 -75 920 -65 849 -78 991 -96 1105 -83 531
-332 1028 -733 1468 -109 119 -259 209 -566 341 -66 28 -131 57 -145 65 -85
47 -531 225 -767 306 l-153 53 0 738 0 738 58 11 c75 15 173 46 248 80 339
152 519 525 541 1124 5 144 -9 451 -23 499 -4 12 -14 1 -35 -42 -42 -83 -109
-154 -177 -188 -48 -23 -69 -28 -132 -27 -101 0 -164 24 -261 95 -44 33 -90
64 -102 68 -12 5 -71 14 -132 21 -215 24 -365 -4 -665 -125 -212 -86 -261 -96
-360 -71 -86 21 -230 94 -307 157 -188 149 -304 391 -302 628 0 53 21 287 47
520 l47 424 95 55 c247 142 520 364 664 540 l49 60 29 -60 c136 -288 661 -435
1258 -353 231 32 460 113 553 195 167 146 181 575 31 939 -35 85 -124 245
-160 288 l-19 23 -100 -46z m-2956 -1506 c56 -26 179 -148 205 -202 17 -36 18
-60 13 -295 -7 -343 -36 -482 -116 -573 -97 -110 -219 -28 -309 209 -107 280
-124 718 -32 831 46 56 155 70 239 30z m3715 -9049 c75 -59 72 -171 -6 -219
-52 -33 -122 -23 -165 24 -27 29 -33 44 -33 81 0 88 45 134 131 135 32 0 54
-6 73 -21z m-3664 -295 c38 -23 60 -65 60 -116 -1 -52 -16 -83 -56 -109 -68
-45 -166 -10 -194 69 -13 37 -13 47 0 84 27 77 121 112 190 72z m-2860 -2086
c0 -54 19 -488 30 -693 41 -751 105 -1538 216 -2663 26 -260 45 -474 43 -476
-6 -5 -383 13 -458 22 l-64 7 -78 280 c-230 825 -359 1422 -359 1664 0 202 41
518 95 732 82 323 234 674 412 949 68 104 145 209 156 210 4 0 7 -15 7 -32z
m6563 -4958 c64 -24 92 -51 84 -81 -3 -12 0 -28 8 -36 13 -12 14 -10 9 19 -4
26 -3 30 6 16 6 -10 18 -22 28 -28 15 -10 15 -11 0 -6 -13 4 -16 0 -12 -22 6
-32 21 -50 21 -25 0 10 -5 21 -11 25 -7 5 -6 8 4 8 8 0 20 -8 27 -19 10 -15 8
-23 -8 -40 -11 -12 -24 -19 -30 -16 -5 4 -9 -3 -9 -14 0 -12 5 -21 10 -21 6 0
10 5 10 10 0 6 5 10 11 10 6 0 8 -7 5 -16 -3 -9 -2 -12 5 -9 5 4 7 14 5 23 -7
22 9 49 18 33 4 -6 4 -16 0 -23 -4 -7 -3 -8 4 -4 7 4 12 2 12 -3 0 -6 -4 -11
-10 -11 -5 0 -10 -4 -10 -10 0 -5 6 -9 12 -7 8 1 13 -12 14 -37 1 -50 -6 -87
-16 -81 -4 3 -13 -2 -20 -10 -13 -15 -30 -12 -30 6 0 6 5 7 10 4 6 -3 10 -3
10 2 0 13 -14 28 -29 31 -10 2 -12 -1 -5 -10 6 -7 10 -25 9 -39 -1 -28 12 -29
45 -5 13 9 13 9 3 -5 -7 -9 -9 -20 -5 -24 4 -5 1 -4 -7 0 -11 6 -13 4 -8 -8 5
-14 -16 -32 -34 -29 -3 0 -6 -6 -6 -14 0 -11 4 -11 19 3 14 12 17 13 13 2 -3
-8 -20 -22 -38 -33 -27 -16 -29 -19 -14 -25 17 -6 17 -8 -1 -31 -11 -14 -20
-28 -21 -32 -6 -31 -14 -38 -28 -27 -11 10 -13 9 -11 -2 2 -8 8 -17 13 -21 6
-5 5 -8 -3 -8 -7 0 -10 -4 -7 -10 3 -5 1 -10 -5 -10 -6 0 -8 -5 -4 -12 5 -8 2
-9 -11 -4 -14 5 -16 4 -7 -7 9 -10 7 -19 -8 -34 -10 -12 -17 -23 -14 -26 3 -3
0 -8 -7 -13 -9 -5 -11 -1 -7 14 4 12 3 20 -1 18 -4 -3 -8 5 -8 17 -2 20 -1 21
11 4 12 -15 15 -15 26 -2 13 15 13 15 -37 15 -5 0 -8 -20 -8 -44 0 -24 3 -42
8 -39 14 8 7 -12 -14 -42 -12 -16 -19 -23 -16 -15 3 10 -2 16 -14 17 -10 1
-19 -3 -19 -8 0 -6 6 -7 13 -3 6 4 3 -3 -8 -16 l-20 -23 22 5 c20 5 21 4 12
-13 -5 -10 -12 -19 -15 -19 -3 0 -2 5 2 12 4 6 3 8 -4 5 -5 -4 -8 -17 -4 -30
5 -19 3 -20 -10 -9 -13 10 -15 9 -12 -13 1 -14 -4 -31 -11 -39 -8 -7 -11 -16
-8 -20 4 -3 1 -6 -6 -6 -7 0 -10 -4 -6 -9 3 -5 -5 -22 -18 -36 -20 -24 -23
-25 -23 -7 0 12 5 18 13 15 7 -3 13 0 13 7 0 6 -4 8 -10 5 -14 -8 -13 8 1 22
9 9 7 11 -7 9 -14 -2 -19 -11 -19 -35 0 -22 -6 -36 -20 -43 -27 -15 -55 -48
-55 -64 0 -7 10 -20 22 -28 16 -11 18 -16 7 -16 -8 0 -19 3 -25 8 -5 4 -2 0 7
-8 8 -9 14 -21 11 -28 -3 -9 -8 -8 -17 5 -12 16 -12 14 -8 -11 4 -19 2 -27 -5
-23 -10 7 -27 -22 -17 -31 3 -3 5 0 5 6 0 7 5 12 11 12 5 0 2 -13 -7 -29 -10
-17 -22 -27 -28 -24 -6 4 -7 -1 -2 -12 7 -18 6 -18 -13 -1 -15 14 -21 15 -27
4 -4 -7 -4 -10 1 -6 4 4 13 0 20 -9 9 -13 9 -22 -2 -45 -8 -15 -20 -28 -26
-28 -7 0 -6 4 3 10 13 8 12 10 -2 10 -21 0 -23 -11 -6 -28 9 -9 9 -12 -2 -12
-7 0 -11 -3 -7 -6 8 -9 -31 -84 -43 -84 -6 0 -10 5 -10 11 0 5 5 7 12 3 7 -4
8 -3 4 4 -4 7 -1 12 6 13 10 0 10 2 0 6 -6 2 -9 10 -6 15 4 7 2 8 -4 4 -14 -8
-15 3 -3 23 7 11 10 9 16 -8 4 -13 9 -20 12 -18 2 3 -1 15 -7 27 -9 16 -8 25
2 38 11 15 11 15 -3 5 -9 -7 -20 -9 -24 -5 -5 4 -5 -1 -2 -10 4 -10 3 -18 -1
-18 -12 0 -12 -39 -1 -46 6 -4 6 -11 -2 -20 -9 -11 -8 -18 2 -31 12 -14 12
-16 0 -8 -11 6 -13 4 -9 -7 7 -18 -8 -46 -19 -35 -4 5 -1 12 7 17 20 13 4 13
-19 0 -31 -16 -33 -38 -4 -32 24 4 24 3 13 -19 -18 -35 -23 -38 -16 -9 5 18 5
21 -3 11 -7 -11 -13 -12 -24 -3 -11 9 -14 9 -14 -3 0 -7 5 -13 10 -12 5 1 12
-4 14 -10 3 -7 -2 -13 -11 -13 -9 0 -16 -7 -16 -15 0 -8 6 -15 13 -15 9 0 9
-2 -1 -9 -8 -4 -13 -12 -13 -17 1 -5 -3 -10 -9 -10 -5 -1 -12 -3 -15 -4 -13
-7 -31 -5 -38 5 -5 5 -5 -1 -2 -14 4 -13 3 -21 -1 -18 -10 6 -12 -68 -3 -78 4
-3 -7 -31 -23 -61 -22 -40 -35 -54 -47 -51 -9 2 -23 -3 -30 -11 -12 -12 -11
-13 7 -8 11 4 23 3 26 -2 7 -12 -30 -23 -50 -15 -8 3 -14 10 -14 16 0 5 -9 2
-19 -7 -14 -12 -17 -22 -10 -30 5 -6 17 -20 25 -31 15 -19 15 -19 10 6 -5 24
-3 27 18 25 22 -1 23 -3 10 -17 -8 -8 -14 -23 -14 -33 0 -11 -4 -14 -12 -10
-7 5 -9 2 -6 -8 8 -19 -27 -74 -36 -59 -4 6 -12 11 -17 11 -6 0 -3 -7 5 -16
20 -19 20 -21 1 -21 -8 0 -15 5 -15 10 0 6 -2 8 -5 5 -8 -8 6 -39 15 -33 5 3
2 -8 -6 -25 -9 -16 -20 -30 -25 -30 -6 0 -8 -4 -5 -8 3 -5 -1 -9 -9 -9 -18 0
-20 13 -2 20 9 4 8 8 -3 16 -8 5 -11 14 -6 18 4 4 14 -1 22 -11 12 -17 14 -18
14 -3 0 9 -4 17 -9 17 -5 0 -6 15 -1 33 5 26 4 34 -7 34 -8 0 -11 -7 -7 -19 3
-10 0 -26 -8 -35 -7 -9 -13 -35 -13 -59 0 -36 2 -41 14 -31 12 10 13 9 2 -11
-8 -16 -16 -20 -24 -14 -19 15 -47 10 -47 -7 0 -9 -5 -23 -11 -31 -8 -11 -9
-8 -5 15 5 26 5 27 -5 11 -9 -14 -9 -24 -1 -37 9 -13 9 -20 0 -25 -7 -5 -5
-11 8 -21 15 -11 16 -17 7 -31 -7 -9 -21 -36 -32 -59 -22 -47 -26 -50 -35 -28
-3 8 -1 14 3 12 5 -1 10 3 11 8 1 6 6 15 11 22 14 16 -8 28 -26 13 -11 -10
-15 -10 -15 -1 0 7 -5 9 -10 6 -14 -9 -1 -27 15 -21 7 2 16 -1 18 -9 4 -9 -2
-12 -18 -10 -20 2 -23 -1 -15 -15 5 -10 6 -21 2 -25 -4 -3 -2 -5 4 -3 7 2 12
0 13 -4 3 -22 -1 -28 -16 -28 -15 0 -16 -2 -3 -10 10 -6 11 -10 3 -10 -7 0
-13 -8 -13 -18 0 -10 -6 -26 -13 -36 -12 -16 -14 -16 -26 -2 -8 9 -9 16 -3 16
6 0 12 -5 14 -12 3 -7 7 -4 12 7 4 11 4 16 0 12 -4 -4 -13 -2 -21 4 -13 12
-14 10 -17 -23 -1 -7 -5 -16 -10 -20 -11 -8 -16 -48 -5 -48 4 0 9 7 13 15 3 8
0 15 -7 15 -8 0 -7 4 3 9 24 16 30 2 13 -34 -12 -25 -19 -32 -26 -23 -5 9 -6
6 -2 -8 3 -13 -1 -26 -10 -34 -8 -7 -15 -20 -15 -29 0 -13 -2 -14 -9 -1 -6 8
-7 18 -4 24 3 5 1 6 -5 2 -6 -4 -9 -13 -5 -22 3 -9 0 -14 -8 -12 -8 2 -13 -4
-13 -14 1 -10 -2 -18 -6 -18 -9 0 -8 -19 2 -35 4 -6 2 -17 -4 -25 -8 -13 -9
-13 -5 1 3 9 -1 16 -9 16 -10 0 -12 -7 -8 -20 5 -15 2 -18 -14 -13 -16 6 -19
3 -14 -19 4 -24 5 -24 18 -8 13 16 13 15 3 -8 -11 -27 -42 -37 -31 -11 4 11 1
13 -8 7 -10 -6 -12 -4 -7 9 4 10 3 15 -3 11 -16 -10 -7 -38 15 -53 19 -13 19
-13 -3 -9 -12 3 -20 1 -17 -3 3 -5 0 -10 -7 -13 -7 -2 -5 -3 5 -2 9 2 17 -1
17 -6 0 -5 -5 -9 -11 -9 -5 0 -7 -4 -4 -10 3 -5 1 -10 -5 -10 -6 0 -8 -5 -4
-12 4 -7 3 -8 -4 -4 -11 6 -17 -12 -13 -36 2 -15 -17 -8 -23 8 -4 10 -2 13 6
8 7 -5 8 -3 4 5 -5 7 0 22 11 34 l18 22 -22 -19 c-18 -14 -23 -16 -23 -5 -1
10 -5 9 -15 -5 -8 -11 -13 -35 -11 -60 2 -22 0 -46 -6 -52 -5 -7 -11 -21 -13
-33 -5 -27 -57 -73 -69 -61 -5 5 -17 -2 -29 -16 -10 -14 -22 -23 -25 -20 -3 3
-10 2 -16 -3 -6 -5 -33 -11 -61 -15 -27 -3 -42 -2 -33 2 12 5 15 11 8 22 -5 8
-10 11 -10 5 0 -5 -5 -3 -11 5 -9 13 -10 13 -6 -2 3 -9 0 -21 -6 -26 -17 -14
-67 -3 -67 15 0 12 3 13 13 4 10 -8 14 -7 14 4 0 7 -5 13 -11 12 -6 -1 -10 3
-9 8 1 6 -7 12 -18 12 -20 2 -26 -21 -9 -32 22 -14 8 -22 -20 -12 -16 6 -30
15 -30 20 0 4 6 5 13 1 8 -5 8 -2 -2 9 -7 9 -19 17 -25 17 -6 0 -4 -5 4 -10 9
-6 10 -10 3 -10 -6 0 -15 5 -18 10 -3 6 -13 10 -21 10 -19 0 -57 35 -60 55 -1
8 2 13 7 9 5 -3 7 -9 4 -14 -3 -5 0 -12 7 -16 7 -4 10 -4 6 1 -4 4 -2 15 5 23
9 13 9 14 0 8 -9 -5 -13 1 -13 21 0 16 -5 34 -12 41 -14 14 -72 16 -63 2 3 -5
12 -7 20 -3 19 7 45 -14 45 -35 0 -12 -4 -11 -16 6 -8 12 -20 22 -26 22 -7 0
-3 -6 8 -14 10 -8 16 -17 13 -20 -3 -4 -22 10 -42 30 -34 35 -35 38 -20 60 19
29 28 32 13 3 -6 -11 -9 -25 -6 -32 2 -7 5 -3 5 8 1 15 4 16 13 7 7 -7 22 -12
34 -12 26 0 40 -16 47 -50 4 -24 4 -24 6 3 1 35 -17 54 -55 59 -27 3 -29 6
-28 43 1 22 0 32 -3 23 -2 -10 -9 -18 -14 -18 -6 0 -8 4 -5 8 2 4 -5 9 -17 10
-12 2 -31 4 -42 6 -11 2 -24 4 -29 5 -4 0 -6 12 -4 26 4 21 2 24 -13 20 -13
-4 -27 7 -53 41 -20 26 -36 53 -36 61 0 8 -4 12 -8 9 -5 -3 -25 15 -46 39 -27
33 -33 45 -21 45 9 0 13 -4 10 -10 -3 -5 -2 -10 4 -10 6 0 17 -12 25 -27 l14
-28 -3 33 c-1 18 -6 36 -10 40 -5 4 -5 1 -1 -5 4 -7 2 -13 -3 -13 -10 0 -15
14 -12 33 1 5 -8 5 -20 2 -18 -6 -20 -4 -14 15 6 19 5 21 -14 11 -17 -9 -22
-8 -32 11 -6 13 -20 32 -30 43 -10 11 -19 25 -21 30 -2 6 -6 9 -10 8 -3 -1
-12 4 -18 12 -7 8 -9 15 -5 15 4 0 -4 9 -18 20 -16 13 -24 28 -22 41 2 11 0
17 -5 14 -14 -9 -39 24 -35 45 4 21 -11 28 -17 9 -2 -7 -10 -4 -18 7 -13 16
-13 17 0 10 8 -4 4 1 -9 12 -15 12 -21 24 -16 32 6 10 4 12 -8 7 -10 -4 -18 1
-22 14 -4 10 -10 19 -15 19 -4 0 -10 7 -13 14 -4 11 -1 13 10 9 11 -4 14 -3 9
6 -8 13 10 41 27 41 5 0 2 -9 -8 -20 -10 -11 -14 -20 -8 -20 5 0 9 -10 9 -21
-1 -13 6 -23 17 -24 9 -2 17 1 17 7 0 6 -7 8 -15 4 -20 -7 -19 13 3 37 9 11
11 17 5 13 -22 -13 -14 14 12 39 24 24 52 35 40 15 -11 -18 1 -11 21 12 10 12
13 18 7 14 -22 -13 -14 14 12 39 24 24 52 35 40 15 -11 -18 1 -11 21 12 10 12
13 18 7 14 -22 -13 -14 14 12 39 24 24 52 35 40 15 -11 -18 1 -11 21 12 10 12
13 18 7 14 -22 -13 -14 14 12 39 24 24 52 35 40 15 -11 -18 1 -11 21 12 10 12
13 18 7 14 -16 -9 -16 -1 -2 26 9 16 8 19 -3 13 -7 -5 -2 4 11 18 24 27 44 30
23 4 -9 -10 -8 -14 2 -14 15 0 29 48 20 71 -3 8 0 17 7 22 9 5 10 2 6 -9 -4
-10 -2 -17 4 -17 7 0 9 8 5 20 -3 11 -9 30 -13 42 -4 15 -3 19 5 14 7 -4 12
-3 12 3 0 5 -4 11 -10 13 -5 2 -10 20 -12 41 -1 20 -7 37 -13 37 -5 0 -3 5 5
10 12 8 12 10 -5 11 -11 0 -14 3 -7 6 6 2 12 9 12 14 0 6 -5 7 -10 4 -6 -4
-17 -1 -25 5 -17 14 -21 35 -5 25 6 -3 7 1 3 10 -3 9 -9 13 -12 7 -3 -5 -15
-14 -26 -20 -12 -7 -14 -12 -6 -12 10 0 11 -4 3 -12 -6 -7 -10 -17 -10 -23 0
-5 -6 -11 -14 -13 -8 -2 -9 0 -3 5 12 10 13 36 1 44 -5 4 1 10 13 14 11 3 21
10 21 15 0 10 -29 22 -39 15 -9 -5 -7 -87 2 -102 3 -5 -44 -58 -104 -118 -60
-61 -109 -105 -109 -100 0 13 20 43 20 31 0 -10 35 23 38 37 4 16 38 44 47 38
6 -2 4 2 -2 10 -18 22 -58 17 -58 -7 0 -10 2 -23 6 -29 3 -5 -2 -18 -12 -27
-10 -10 -20 -14 -23 -9 -3 4 -15 7 -28 6 -17 -1 -22 -8 -22 -26 0 -13 5 -23
11 -22 15 3 10 -24 -7 -40 -12 -10 -12 -9 -1 6 10 12 10 17 2 17 -7 0 -17 -14
-23 -31 -7 -20 -22 -36 -43 -45 -21 -8 -35 -23 -39 -39 -4 -17 -19 -31 -41
-41 -19 -8 -35 -19 -35 -25 0 -8 6 -7 18 2 9 7 -26 -31 -78 -83 -84 -86 -97
-95 -115 -85 -11 6 -28 11 -39 12 -16 2 -15 -1 5 -18 17 -13 19 -17 7 -13 -10
3 -18 1 -18 -5 0 -6 8 -9 18 -7 9 2 16 11 14 19 -3 11 -1 11 9 2 7 -7 11 -14
8 -15 -2 -2 -17 -14 -34 -28 -22 -19 -26 -20 -15 -5 14 18 14 19 -2 7 -19 -15
-71 -24 -132 -24 -27 0 -35 -3 -25 -9 12 -8 12 -10 -1 -19 -9 -6 -10 -10 -3
-10 6 0 15 5 19 11 4 7 22 9 43 6 20 -3 30 -3 23 0 -13 5 -7 23 9 23 6 0 7 -4
4 -10 -9 -14 8 -13 23 2 6 6 14 9 17 6 3 -3 -10 -15 -30 -26 -19 -12 -35 -17
-35 -12 0 6 -4 10 -10 10 -5 0 -10 -7 -10 -15 0 -15 -9 -19 -45 -16 -15 1 -17
0 -7 -7 11 -7 11 -10 -2 -15 -9 -4 -16 -2 -16 3 0 6 -10 10 -22 10 -21 0 -21
0 -2 -16 19 -15 19 -16 -1 -9 -11 4 -33 11 -50 16 -27 8 -28 7 -11 -6 10 -8
23 -12 27 -9 5 3 9 1 9 -5 0 -6 -10 -13 -22 -16 -102 -23 -123 -25 -126 -16
-2 7 -10 5 -19 -4 -15 -16 -133 -22 -147 -7 -4 4 -26 8 -49 9 -75 3 -78 4 -71
15 5 7 -2 9 -22 4 -20 -5 -25 -4 -15 3 12 8 9 11 -12 16 -15 4 -37 5 -49 2
-11 -3 -34 1 -49 9 -32 16 -51 19 -29 3 12 -8 10 -9 -9 -4 -20 6 -36 10 -61
14 -3 1 2 6 10 11 13 8 13 10 -2 10 -9 0 -18 -6 -21 -12 -3 -10 -8 -10 -21 1
-9 8 -19 11 -22 8 -3 -3 -18 -1 -33 4 -14 6 -42 11 -61 11 -27 0 -30 2 -15 8
11 4 24 5 29 2 5 -3 6 1 1 8 -8 13 4 12 50 -5 13 -5 17 -5 10 2 -17 17 -75 34
-72 21 3 -15 -74 -32 -83 -18 -4 6 -14 8 -22 5 -9 -4 -19 -2 -23 4 -3 6 -1 11
6 11 7 0 10 3 7 6 -4 3 -15 1 -27 -5 -12 -7 -22 -7 -26 -1 -3 5 -13 6 -21 3
-25 -9 -56 44 -55 95 0 12 -3 22 -8 22 -5 0 -7 -13 -5 -30 l4 -30 -31 28 c-17
15 -35 28 -40 28 -31 5 -30 7 6 20 l40 14 -35 -5 c-19 -2 -46 -7 -60 -10 -19
-5 -21 -4 -9 4 14 9 32 14 99 27 38 8 220 10 231 3 12 -7 1 -39 -14 -39 -5 0
-2 -9 8 -20 15 -17 19 -17 32 -5 8 8 19 15 24 15 12 0 12 -17 -1 -23 -6 -3 -5
-4 2 -3 7 2 12 13 11 25 -3 22 11 29 23 10 3 -6 17 -9 30 -6 14 2 27 0 30 -4
3 -5 10 -9 17 -9 6 0 3 6 -7 13 -10 8 -28 12 -40 10 -13 -3 -28 3 -36 12 -12
15 -11 16 16 10 16 -4 36 -9 44 -12 8 -4 23 -5 34 -4 11 2 16 -2 11 -9 -5 -7
1 -9 19 -4 19 4 28 2 32 -10 5 -12 10 -14 20 -6 9 8 19 8 32 1 11 -6 23 -7 27
-3 5 4 5 1 0 -7 -6 -11 -2 -13 20 -8 16 2 49 -1 74 -9 24 -7 49 -10 54 -7 6 3
7 1 4 -4 -4 -6 2 -18 12 -27 16 -15 19 -15 24 -1 7 17 47 21 47 4 0 -6 7 -9
15 -5 8 3 15 1 15 -4 0 -6 -7 -10 -15 -10 -8 0 -15 -4 -15 -8 0 -4 9 -8 19 -8
11 0 17 4 15 8 -3 4 0 8 6 8 6 0 8 4 5 10 -3 6 1 7 10 4 12 -5 13 -9 4 -20
-10 -12 -9 -13 5 -8 9 3 16 11 16 18 0 6 8 2 16 -9 14 -19 16 -19 25 -2 6 9
15 15 21 11 7 -4 7 -9 -1 -13 -6 -4 10 -7 36 -7 26 0 41 2 35 4 -21 7 -13 25
8 19 11 -3 23 -1 26 4 3 5 10 9 16 9 7 0 7 -4 -1 -13 -18 -22 -1 -27 20 -6 11
11 25 17 31 13 8 -5 9 -2 5 9 -8 21 6 22 22 3 9 -10 8 -15 -4 -20 -8 -3 -15
-11 -14 -18 0 -10 2 -10 6 0 2 6 11 12 19 12 9 0 13 -4 10 -8 -3 -5 1 -9 9 -9
8 0 16 6 19 13 3 9 -1 11 -11 7 -15 -6 -15 -5 -1 16 9 13 14 29 12 36 -6 14
17 35 43 40 10 1 17 8 16 13 -2 6 4 9 13 5 8 -3 14 -2 12 3 -1 5 34 45 77 89
44 44 71 70 61 58 -11 -14 -14 -23 -7 -28 6 -3 11 -1 11 5 0 6 4 9 8 6 14 -9
7 48 -8 66 -35 39 -40 47 -30 53 6 3 10 1 10 -4 0 -6 7 -11 16 -11 11 0 15 -6
11 -20 -3 -11 -1 -20 4 -20 5 0 9 9 9 19 0 23 -36 52 -55 45 -13 -5 -55 40
-55 59 0 6 6 3 13 -7 12 -16 14 -16 14 -2 0 9 -4 16 -8 16 -5 0 -5 8 -2 18 7
16 6 16 -11 0 -19 -19 -27 -22 -25 -10 3 18 -2 33 -10 28 -4 -3 -20 8 -34 24
-15 16 -22 32 -17 35 5 3 11 1 15 -5 13 -20 24 1 14 27 -5 14 -7 34 -4 43 6
19 -17 22 -32 5 -5 -4 -2 -5 6 0 11 6 13 4 8 -8 -3 -9 -2 -19 3 -22 6 -4 10
-14 10 -23 0 -13 -2 -13 -15 4 -15 19 -15 19 -8 -1 5 -16 0 -14 -26 10 -17 16
-29 35 -26 43 2 7 1 11 -4 7 -5 -3 -17 2 -26 11 -15 15 -14 18 6 40 12 13 19
27 16 31 -4 3 -7 1 -7 -6 0 -7 -5 -9 -12 -4 -21 12 -35 12 -35 -2 0 -7 6 -11
14 -8 7 3 13 0 13 -6 0 -6 -6 -11 -14 -11 -19 0 -39 27 -30 41 4 7 3 9 -3 6
-12 -8 -36 17 -39 40 -2 9 -8 21 -15 27 -9 8 -10 7 -4 -4 7 -13 6 -13 -8 0
-19 18 -30 67 -16 75 22 14 -39 85 -73 85 -10 0 -18 5 -18 11 0 5 4 8 8 5 5
-3 7 12 6 32 -2 48 -2 46 -19 32 -12 -10 -15 -10 -15 1 0 8 -6 5 -15 -7 -8
-10 -14 -23 -14 -29 0 -5 5 -3 12 6 8 11 18 14 32 8 19 -7 18 -8 -3 -8 -13 -1
-21 -5 -17 -11 3 -5 13 -6 23 -3 14 5 14 3 -2 -9 -23 -18 -13 -38 19 -38 24 0
81 -57 70 -69 -4 -3 -16 6 -27 22 -11 15 -27 27 -35 27 -11 0 -7 -7 11 -21 15
-12 25 -23 23 -26 -6 -6 -45 32 -90 88 -34 43 -35 46 -19 63 14 14 14 17 2 14
-10 -2 -15 4 -14 20 1 23 -10 30 -21 12 -3 -5 0 -10 7 -11 11 0 11 -2 0 -6
-10 -4 -9 -9 5 -20 13 -10 14 -13 3 -10 -8 2 -21 14 -27 28 -7 13 -13 20 -13
16 0 -5 -12 6 -27 24 -16 18 -27 37 -25 41 1 4 -3 8 -9 8 -5 0 -8 4 -5 9 3 5
-4 11 -16 15 -18 4 -20 8 -10 18 10 10 15 10 22 -2 9 -13 10 -13 10 0 1 8 6 4
11 -9 5 -14 7 -31 5 -38 -4 -10 -1 -10 14 -1 17 11 17 13 2 24 -9 7 -14 16 -9
20 4 4 7 2 7 -4 0 -6 7 -9 16 -5 22 8 -32 31 -66 28 -22 -3 -50 19 -46 36 0 4
-8 17 -19 30 -11 12 -14 19 -7 15 6 -4 12 -2 12 3 0 6 -6 11 -14 11 -8 0 -14
9 -13 19 0 11 5 17 9 15 5 -3 6 -9 3 -14 -3 -4 4 -10 15 -13 29 -8 24 5 -11
28 -30 19 -31 22 -26 81 8 104 70 194 168 244 22 12 203 56 407 100 202 43
808 174 1347 290 539 116 1079 233 1200 259 255 57 342 63 428 31z m-9444 -20
c136 -40 424 -95 633 -121 l98 -11 176 -292 c222 -365 897 -1443 930 -1485 2
-2 92 53 201 122 327 205 917 576 1086 681 86 55 157 104 157 110 0 6 -58 209
-130 451 -71 242 -128 440 -127 441 4 4 279 25 282 22 4 -4 65 -559 155 -1412
11 -104 25 -195 31 -202 8 -10 6 -21 -10 -43 -12 -16 -21 -34 -21 -40 0 -27
286 -745 335 -841 34 -68 53 -92 234 -300 347 -399 470 -584 508 -765 34 -159
-27 -315 -213 -549 -260 -326 -674 -636 -989 -741 -93 -31 -246 -44 -309 -26
-22 6 -41 9 -42 8 -3 -2 -86 -936 -139 -1552 -88 -1040 -189 -2286 -270 -3335
-31 -399 -58 -740 -61 -757 l-5 -33 -904 0 -905 0 0 458 c0 1992 -214 4182
-556 5707 -183 815 -375 1429 -621 1990 -41 94 -96 211 -122 260 -45 85 -47
92 -38 135 12 54 14 597 3 693 -7 59 -6 67 9 67 9 0 40 10 68 22 154 64 264
210 283 373 l7 55 -206 0 -205 0 -6 26 -7 26 -20 -26 -20 -26 -179 0 -179 0
-3 244 -3 243 149 7 c82 3 338 6 569 6 l419 0 -7 68 c-10 96 -39 200 -79 286
-19 42 -32 76 -29 76 3 0 36 -9 72 -20z m9251 -1053 c0 -7 -10 -17 -22 -22
-15 -6 -23 -18 -22 -33 1 -26 -14 -29 -23 -5 -4 11 4 26 25 45 36 31 42 34 42
15z m-19 -40 c-6 -8 -7 -18 -3 -22 4 -5 1 -5 -6 -1 -10 6 -10 11 -1 22 6 8 14
14 16 14 3 0 0 -6 -6 -13z m-2978 -361 c4 -10 1 -13 -8 -9 -8 3 -12 9 -9 14 7
12 11 11 17 -5z m1017 -126 c0 -5 -4 -10 -10 -10 -5 0 -10 5 -10 10 0 6 5 10
10 10 6 0 10 -4 10 -10z m1611 -162 l-30 -41 4 31 c5 41 12 52 31 45 8 -3 14
-2 13 3 -3 17 3 29 8 16 2 -6 -9 -31 -26 -54z m-1758 -34 c-7 -20 -29 -23 -29
-5 0 9 8 17 17 17 9 0 15 -6 12 -12z m-80 -80 c-7 -20 -29 -23 -29 -5 0 9 8
17 17 17 9 0 15 -6 12 -12z m242 -94 c-10 -11 -20 -18 -23 -15 -7 6 18 35 31
35 5 0 2 -9 -8 -20z m1435 10 c0 -5 -4 -10 -10 -10 -5 0 -10 5 -10 10 0 6 5
10 10 10 6 0 10 -4 10 -10z m-1470 -34 c0 -2 -8 -10 -17 -17 -16 -13 -17 -12
-4 4 13 16 21 21 21 13z m-45 -56 c-10 -11 -20 -18 -23 -15 -7 6 18 35 31 35
5 0 2 -9 -8 -20z m-35 -24 c0 -2 -8 -10 -17 -17 -16 -13 -17 -12 -4 4 13 16
21 21 21 13z m-45 -56 c-10 -11 -20 -18 -23 -15 -7 6 18 35 31 35 5 0 2 -9 -8
-20z m-35 -24 c0 -2 -8 -10 -17 -17 -16 -13 -17 -12 -4 4 13 16 21 21 21 13z
m-1547 -49 c-10 -6 -21 -15 -25 -21 -4 -6 -10 -7 -14 -4 -3 4 1 14 10 23 9 9
16 21 16 27 0 6 6 5 16 -3 14 -11 13 -13 -3 -22z m-12163 -7 c102 -12 433 -48
735 -81 303 -32 575 -66 605 -75 89 -25 170 -74 240 -144 79 -79 125 -168 148
-283 16 -81 16 -84 -27 -467 -60 -539 -68 -600 -74 -607 -9 -8 -181 9 -1072
108 -921 103 -1093 124 -1102 133 -11 11 55 306 193 860 74 297 134 548 134
558 0 22 -5 22 220 -2z m13665 0 c-10 -11 -20 -18 -23 -15 -7 6 18 35 31 35 5
0 2 -9 -8 -20z m-35 -24 c0 -2 -8 -10 -17 -17 -16 -13 -17 -12 -4 4 13 16 21
21 21 13z m-590 -42 c0 -2 -7 -4 -15 -4 -8 0 -15 4 -15 10 0 5 7 7 15 4 8 -4
15 -8 15 -10z m2174 1 c3 -8 1 -15 -3 -15 -5 0 -11 5 -13 12 -3 7 -7 5 -11 -6
-4 -9 -3 -15 2 -11 5 3 12 1 16 -5 3 -5 -1 -10 -9 -10 -9 0 -13 -7 -11 -20 2
-11 -1 -20 -7 -20 -5 0 -8 7 -4 15 3 8 1 15 -5 15 -5 0 -3 14 6 30 17 33 30
38 39 15z m-2594 -5 c0 -5 -4 -10 -10 -10 -5 0 -10 5 -10 10 0 6 5 10 10 10 6
0 10 -4 10 -10z m240 -28 c0 -5 -7 -9 -15 -9 -8 0 -15 4 -15 9 0 4 7 8 15 8 8
0 15 -4 15 -8z m-353 -138 c-3 -3 -12 -4 -19 -1 -8 3 -5 6 6 6 11 1 17 -2 13
-5z m-10421 -339 c74 -48 83 -141 20 -204 -33 -33 -41 -36 -91 -36 -50 0 -58
3 -91 36 -66 66 -53 158 28 210 38 23 93 21 134 -6z m12850 -21 c-6 -13 -15
-24 -19 -24 -4 0 -4 8 1 18 5 9 7 23 5 30 -3 7 1 10 10 6 12 -4 12 -10 3 -30z
m-793 -191 c4 -2 2 -13 -3 -24 -6 -11 -16 -16 -22 -13 -7 5 -4 12 8 21 18 13
17 14 -8 9 -26 -4 -36 3 -22 17 5 5 27 1 47 -10z m623 -43 c0 -11 -4 -20 -8
-20 -10 0 -11 24 -1 33 9 9 9 10 9 -13z m9 -40 c6 -9 -21 -70 -31 -70 -2 0 -1
8 4 18 5 9 8 27 7 40 -2 23 9 30 20 12z m-14208 -877 c436 -47 797 -89 803
-93 16 -10 -75 -801 -106 -928 -52 -212 -169 -420 -311 -552 l-48 -45 -355 3
-356 3 -12 81 c-34 212 -140 440 -310 661 -101 133 -141 269 -149 507 -7 198
16 450 41 450 6 0 368 -39 803 -87z m2272 -675 c976 -2843 1560 -5005 1598
-5910 l6 -148 -421 0 -422 0 0 -530 0 -530 305 0 c168 0 305 -4 305 -8 0 -5
-49 -211 -109 -458 -60 -247 -130 -538 -156 -646 l-47 -198 -989 0 -989 0 0
28 c0 40 19 396 25 475 l5 67 -1214 0 c-861 0 -1230 3 -1268 11 -142 30 -254
134 -298 277 -20 63 -20 96 -20 1352 0 1257 0 1289 20 1351 11 35 30 81 43
102 13 21 441 465 952 987 l930 949 5 -1032 c5 -1001 6 -1033 25 -1072 84
-169 304 -211 448 -86 20 18 49 58 64 89 l28 57 5 1056 5 1056 270 -289 270
-289 7 78 c5 43 26 317 48 608 115 1513 216 2393 306 2663 27 80 105 141 180
142 l31 0 52 -152z m10585 17 c128 -33 279 -138 309 -214 9 -21 23 -79 31
-127 14 -86 20 -127 31 -244 38 -395 33 -1827 -10 -3020 -3 -74 -7 -209 -10
-300 -3 -91 -7 -205 -10 -255 -2 -49 -7 -157 -10 -240 -3 -82 -8 -195 -10
-250 -3 -55 -7 -161 -10 -235 -3 -74 -8 -180 -10 -235 -3 -55 -7 -156 -10
-225 -3 -69 -8 -159 -10 -200 -2 -41 -7 -138 -10 -215 -3 -77 -8 -174 -10
-215 -2 -41 -7 -127 -10 -190 -3 -63 -8 -153 -10 -200 -3 -47 -7 -134 -10
-195 -3 -60 -8 -148 -10 -195 -5 -79 -27 -503 -40 -755 -3 -60 -8 -141 -10
-180 -2 -38 -7 -115 -10 -170 -3 -55 -7 -134 -10 -175 -4 -67 -15 -249 -30
-530 -3 -52 -8 -124 -10 -160 -2 -36 -7 -117 -10 -180 -3 -63 -8 -137 -10
-165 -2 -27 -7 -99 -10 -160 -3 -60 -8 -137 -10 -170 -3 -33 -12 -184 -20
-335 -19 -340 -62 -1039 -71 -1137 l-6 -73 -269 0 -269 0 0 1905 0 1905 25 0
25 0 0 530 0 530 -496 0 -496 0 6 28 c3 15 170 1265 371 2777 201 1513 372
2776 380 2807 55 218 247 410 462 462 78 19 216 19 287 1z m14326 -1424 c0
-92 -140 -7211 -146 -7398 -6 -193 -8 -213 -24 -213 -14 0 -18 14 -24 93 -9
128 -79 3534 -110 5327 -9 470 -18 968 -21 1105 -3 138 -6 353 -6 479 l-1 229
62 90 c34 49 102 145 151 213 95 131 119 146 119 75z m-29997 -218 c-15 -72
-23 -140 -21 -174 12 -185 252 -401 558 -503 225 -75 428 -74 663 1 16 5 17
-8 17 -176 l0 -181 -1210 0 -1210 0 0 408 c0 232 5 425 10 450 31 132 120 232
248 278 28 10 146 13 503 14 l466 0 -24 -117z m27697 -1253 c0 -5 -139 -180
-308 -387 -169 -208 -517 -634 -772 -948 -255 -313 -541 -664 -635 -780 -680
-835 -898 -1103 -1425 -1750 -326 -401 -619 -760 -649 -797 -30 -37 -56 -67
-57 -65 -3 3 -130 608 -149 710 -15 84 -15 89 3 130 12 26 56 77 113 132 52
50 549 529 1104 1066 855 826 1116 1084 1338 1325 l29 32 -36 70 -36 71 113
93 c61 52 238 198 392 325 154 127 433 357 620 511 187 154 343 278 347 276 5
-3 8 -9 8 -14z m10689 -198 c30 -15 190 -288 1394 -2372 1500 -2597 1401
-2412 1339 -2481 l-30 -34 -2742 -3 c-2475 -2 -2744 -1 -2771 14 -36 18 -63
75 -55 115 4 24 2664 4646 2715 4719 18 26 75 60 101 60 8 0 30 -8 49 -18z
m-40602 -2712 c59 -36 58 -26 58 -505 0 -416 -1 -442 -19 -472 -34 -56 -71
-65 -260 -61 l-168 3 -34 37 -34 38 0 445 c0 379 2 450 15 475 27 53 53 59
240 60 151 0 174 -2 202 -20z m2423 7 c13 -7 35 -28 47 -46 l23 -34 0 -431 c0
-390 -2 -434 -18 -466 -29 -60 -65 -70 -240 -70 -173 0 -210 9 -242 62 -20 32
-20 46 -18 480 l3 446 25 27 c14 15 34 31 45 35 33 14 346 12 375 -3z m23178
-1094 c11 -54 30 -147 41 -208 20 -105 54 -277 248 -1258 47 -240 84 -438 82
-440 -2 -1 -230 -1 -506 1 l-503 4 0 999 0 999 309 0 308 0 21 -97z m-1348
-1368 l0 -1425 -555 0 -555 0 0 1425 0 1425 555 0 555 0 0 -1425z m-11344 473
l-1 -653 -793 -3 c-753 -2 -793 -1 -788 15 84 270 240 875 291 1133 15 74 29
141 31 148 3 9 138 12 632 12 l629 0 -1 -652z m3564 -3 l0 -655 -200 0 c-185
0 -200 1 -200 18 0 17 153 1179 166 1255 l6 37 114 0 114 0 0 -655z m-12866
-117 c5 -32 26 -454 26 -510 l0 -28 -640 0 -640 0 0 285 0 285 625 0 624 0 5
-32z m71 -1370 c2 -7 9 -98 15 -203 28 -504 80 -1366 85 -1412 l5 -53 -715 0
-715 0 0 840 0 840 660 0 c520 0 662 -3 665 -12z m4473 3 c9 -5 -17 -132 -92
-452 -58 -244 -141 -601 -186 -794 -44 -192 -85 -367 -91 -387 l-10 -38 -754
0 -755 0 0 43 c0 66 59 1285 64 1342 3 28 6 93 7 145 1 52 4 107 7 123 l5 28
897 -2 c493 0 902 -4 908 -8z m4760 -833 l4 -838 -1281 0 c-705 0 -1281 2
-1281 4 0 3 25 60 56 128 84 183 216 490 301 693 84 203 294 739 313 800 7 22
15 43 17 48 2 4 424 6 936 5 l932 -3 3 -837z m3562 2 l0 -840 -370 0 -370 0 5
23 c3 12 52 384 111 827 58 443 107 811 109 818 3 9 64 12 260 12 l255 0 0
-840z m4140 -163 c278 -209 520 -393 538 -410 64 -62 72 -93 72 -290 l0 -177
295 0 295 0 0 -205 c0 -113 -1 -206 -2 -207 -2 -1 -309 -4 -683 -8 -661 -6
-682 -7 -760 -28 -128 -35 -208 -70 -301 -128 -47 -30 -87 -54 -89 -54 -3 0 6
202 10 226 3 14 27 31 79 55 l75 34 1 258 0 257 -60 0 c-50 0 -60 3 -60 18 0
9 4 89 10 177 5 88 12 201 15 250 3 50 12 194 20 320 8 127 15 247 15 268 0
28 3 36 13 31 6 -5 239 -179 517 -387z m275 -1601 c192 -65 338 -192 429 -374
90 -180 88 -449 -4 -638 -121 -247 -364 -394 -650 -394 -208 0 -366 65 -510
210 -134 133 -197 275 -207 465 -10 184 48 365 162 507 88 109 256 211 400
242 109 24 279 16 380 -18z m2669 20 c149 -29 269 -92 381 -201 84 -81 146
-181 183 -292 22 -68 25 -96 25 -213 1 -118 -3 -144 -25 -212 -38 -116 -93
-204 -181 -295 -143 -145 -303 -213 -507 -213 -294 0 -537 150 -656 407 -54
114 -67 187 -62 343 4 121 8 144 36 219 124 330 463 522 806 457z m2815 -6
c212 -51 394 -199 487 -395 52 -109 69 -184 68 -310 0 -133 -18 -208 -76 -325
-34 -68 -61 -103 -133 -176 -147 -148 -305 -214 -509 -214 -134 0 -222 20
-334 76 -158 78 -290 226 -347 391 -78 224 -46 476 84 667 63 93 216 214 323
257 128 51 298 62 437 29z m-11682 -1410 c330 -33 608 -60 617 -60 13 0 16
-34 18 -280 l3 -280 -30 0 c-16 0 -82 -7 -145 -16 -137 -19 -507 -22 -650 -5
-215 26 -367 70 -596 171 -77 34 -176 74 -222 89 l-83 27 50 34 c27 19 47 38
44 44 -3 5 -1 6 5 2 17 -10 193 172 251 262 l54 83 41 -6 c23 -3 312 -32 643
-65z m3991 63 l480 -6 13 -46 c18 -68 73 -179 114 -233 l37 -48 -42 0 c-88 0
-179 -31 -377 -129 -109 -54 -227 -110 -263 -124 -248 -98 -581 -146 -944
-133 -104 3 -191 7 -192 9 -3 2 42 125 124 344 18 46 40 102 51 125 10 24 35
85 55 136 20 52 38 98 42 103 6 11 248 11 902 2z m1198 -44 c43 -45 144 -125
210 -164 l58 -35 -176 0 -176 0 -54 59 c-56 60 -119 136 -132 159 -6 9 20 12
117 12 l123 0 30 -31z m-12205 -89 c225 -34 747 -65 952 -55 56 2 168 7 248
10 l146 6 16 -117 c9 -64 21 -122 27 -129 5 -6 8 -14 5 -17 -7 -6 31 -131 56
-185 10 -24 19 -45 19 -48 0 -3 6 -18 14 -34 l15 -28 -42 -13 c-23 -6 -118
-45 -212 -85 -266 -115 -397 -151 -633 -176 -142 -15 -530 -6 -666 15 -96 14
-142 13 -179 -6 -16 -8 -17 -4 -15 34 2 24 5 45 9 48 19 18 119 672 119 783 0
15 5 17 28 13 15 -3 57 -10 93 -16z m-3147 -547 c139 -12 297 -17 581 -17
l391 0 16 -120 c9 -67 15 -122 14 -123 -1 -1 -53 -7 -115 -13 -65 -6 -176 -27
-264 -50 -84 -21 -215 -55 -292 -75 -285 -73 -374 -59 -550 88 -33 28 -63 54
-68 57 -4 3 0 58 8 121 24 171 21 162 57 155 17 -3 117 -14 222 -23z m16541
-443 c3 -6 -1 -7 -9 -4 -18 7 -21 14 -7 14 6 0 13 -4 16 -10z m26000 -309 c3
-5 2 -12 -3 -15 -5 -3 -9 1 -9 9 0 17 3 19 12 6z"/>
<path d="M26196 23875 c4 -8 8 -15 10 -15 2 0 4 7 4 15 0 8 -4 15 -10 15 -5 0
-7 -7 -4 -15z"/>
<path d="M26183 23837 c-3 -4 -2 -11 1 -14 3 -4 6 0 7 8 0 9 3 8 7 -3 7 -17 8
-17 18 0 10 15 8 18 -8 18 -11 0 -22 -4 -25 -9z"/>
<path d="M26222 23800 c0 -14 2 -19 5 -12 2 6 2 18 0 25 -3 6 -5 1 -5 -13z"/>
<path d="M26186 23785 c-9 -26 -7 -32 5 -12 6 10 9 21 6 23 -2 3 -7 -2 -11
-11z"/>
<path d="M26146 23709 c5 -20 4 -21 -6 -9 -9 12 -10 11 -5 -9 5 -17 4 -21 -5
-16 -9 6 -9 3 -1 -13 15 -29 13 -41 -3 -19 -13 17 -14 16 -12 -7 0 -15 8 -27
19 -30 11 -2 16 -2 13 1 -3 4 -1 13 6 20 9 11 9 16 -1 22 -9 6 -9 13 0 35 9
19 10 29 1 38 -8 8 -9 5 -6 -13z"/>
<path d="M26245 23580 c-3 -6 1 -7 9 -4 18 7 21 14 7 14 -6 0 -13 -4 -16 -10z"/>
<path d="M26050 23510 c-6 -22 -15 -38 -20 -35 -6 4 -7 -1 -3 -11 5 -13 3 -15
-8 -9 -8 5 -11 4 -6 0 4 -5 22 -10 39 -11 23 -2 28 0 19 9 -14 14 -15 30 -1
22 6 -3 10 -2 10 4 0 5 -5 13 -11 17 -6 3 -8 17 -5 30 4 13 4 24 2 24 -3 0
-10 -18 -16 -40z"/>
<path d="M26184 23498 c0 -10 1 -18 3 -18 1 0 7 8 12 18 7 13 6 19 -2 19 -7 0
-13 -9 -13 -19z"/>
<path d="M26190 23460 c0 -5 5 -10 10 -10 6 0 10 5 10 10 0 6 -4 10 -10 10 -5
0 -10 -4 -10 -10z"/>
<path d="M25971 23389 c-12 -17 -20 -36 -17 -44 2 -7 -2 -21 -9 -32 -8 -10
-15 -13 -15 -7 0 5 5 15 12 22 9 9 9 12 0 12 -7 0 -13 -3 -13 -7 -7 -40 -5
-49 13 -50 10 -1 16 2 13 8 -4 5 4 23 16 40 12 18 23 45 24 60 1 16 1 29 0 29
-1 0 -11 -14 -24 -31z m9 -24 c-7 -9 -15 -13 -18 -10 -3 2 1 11 8 20 7 9 15
13 18 10 3 -2 -1 -11 -8 -20z"/>
<path d="M25976 23313 c-4 -9 -3 -20 1 -24 4 -4 9 3 9 17 2 28 -1 31 -10 7z"/>
<path d="M25901 23263 c7 -12 15 -20 18 -17 3 2 -3 12 -13 22 -17 16 -18 16
-5 -5z"/>
<path d="M25884 23236 c6 -26 -8 -37 -17 -13 -4 9 -6 9 -6 -1 -1 -7 -5 -11
-10 -7 -5 3 -12 2 -15 -3 -6 -10 45 -10 61 1 6 4 14 1 16 -5 4 -10 6 -10 6 0
1 7 -6 15 -14 18 -8 4 -13 10 -10 14 3 5 0 12 -6 16 -9 5 -10 -1 -5 -20z"/>
<path d="M25815 23180 c4 -6 11 -8 16 -5 14 9 11 15 -7 15 -8 0 -12 -5 -9 -10z"/>
<path d="M25810 23150 c0 -5 0 -12 0 -15 0 -12 14 -4 16 10 1 8 -2 15 -7 15
-5 0 -9 -4 -9 -10z"/>
<path d="M25775 23141 c-3 -5 -2 -12 3 -15 5 -3 9 1 9 9 0 17 -3 19 -12 6z"/>
<path d="M25740 23086 c0 -9 -4 -15 -9 -12 -5 4 -8 -1 -7 -11 2 -9 10 -17 18
-19 11 -1 15 5 13 22 -3 29 -15 45 -15 20z"/>
<path d="M25679 23043 c-17 -20 -18 -23 -3 -10 11 9 23 15 26 12 2 -3 5 2 5
10 0 19 1 20 -28 -12z"/>
<path d="M25645 22988 c4 -21 3 -22 -9 -5 -13 16 -14 16 -27 0 -9 -11 -10 -14
-1 -9 6 4 12 3 12 -3 0 -6 13 -9 29 -8 27 2 27 3 13 25 -8 12 -16 22 -18 22
-1 0 -1 -10 1 -22z"/>
<path d="M22625 22956 c-12 -9 -15 -15 -7 -20 7 -4 12 -2 12 5 0 7 6 5 13 -6
13 -17 14 -17 12 3 -2 30 -9 34 -30 18z"/>
<path d="M25580 22950 c10 -7 11 -10 3 -11 -24 -3 -28 -4 -55 -23 -15 -10 -26
-22 -23 -26 3 -4 -3 -14 -12 -21 -15 -12 -16 -12 -9 5 7 20 7 20 -16 1 -13
-11 -25 -22 -28 -24 -3 -2 3 -1 13 2 9 4 17 2 17 -4 0 -6 9 -8 20 -4 24 8 26
-3 4 -20 -15 -11 -15 -12 3 -17 17 -5 19 0 19 36 -1 29 3 40 12 38 8 -1 11 2
7 8 -9 14 8 13 24 -2 11 -11 13 -10 8 4 -3 9 2 23 13 33 20 18 18 35 -3 35 -7
0 -6 -4 3 -10z m-20 -30 c0 -5 -5 -10 -11 -10 -5 0 -7 5 -4 10 3 6 8 10 11 10
2 0 4 -4 4 -10z"/>
<path d="M25842 22930 c-1 -21 0 -22 9 -8 5 10 17 22 27 27 14 9 13 10 -8 9
-20 -2 -26 -8 -28 -28z"/>
<path d="M22674 22931 c3 -5 -1 -14 -8 -20 -10 -8 -16 -9 -21 -1 -3 5 -11 10
-17 10 -7 0 -6 -5 1 -14 7 -8 25 -14 40 -14 15 1 37 -5 50 -11 12 -7 25 -10
29 -7 3 3 0 6 -7 6 -7 0 -10 4 -7 9 3 5 -1 14 -9 21 -10 9 -15 9 -15 1 0 -6
-5 -11 -11 -11 -6 0 -9 6 -6 14 3 8 -1 17 -9 20 -8 3 -13 2 -10 -3z"/>
<path d="M22776 22851 c10 -10 21 -17 23 -15 6 6 -20 34 -32 34 -6 0 -2 -8 9
-19z"/>
<path d="M22814 22842 c3 -5 -2 -13 -11 -17 -10 -3 -19 -1 -21 4 -4 12 -32 15
-32 5 0 -4 10 -15 22 -25 15 -13 25 -16 33 -9 7 6 19 8 28 4 27 -10 28 13 1
31 -15 9 -24 13 -20 7z m31 -30 c-3 -3 -11 0 -18 7 -9 10 -8 11 6 5 10 -3 15
-9 12 -12z"/>
<path d="M25400 22830 c-27 -21 -27 -22 12 -24 15 -1 24 2 22 6 -3 4 5 8 17 8
18 0 20 3 11 12 -9 9 -15 9 -24 0 -17 -17 -33 -15 -18 3 17 20 10 19 -20 -5z"/>
<path d="M22737 22798 c4 -7 8 -17 8 -22 0 -5 6 -11 13 -13 6 -3 12 0 12 6 0
6 8 8 18 5 11 -4 8 1 -8 15 -28 23 -56 29 -43 9z m28 -7 c3 -5 2 -12 -3 -15
-5 -3 -9 1 -9 9 0 17 3 19 12 6z"/>
<path d="M22877 22799 c7 -9 10 -19 6 -23 -4 -4 1 -4 10 0 10 3 17 7 15 8 -2
1 -12 8 -23 16 -18 14 -19 13 -8 -1z"/>
<path d="M25339 22795 c-5 -19 -3 -31 6 -37 6 -5 4 -8 -5 -8 -9 0 -20 4 -26
10 -6 6 -15 6 -24 0 -12 -8 -10 -10 10 -10 19 0 21 -3 12 -12 -10 -10 -17 -10
-32 0 -15 9 -26 10 -40 2 -11 -6 -20 -12 -20 -13 0 -2 30 -3 67 -2 66 0 67 0
68 28 1 15 -2 27 -7 27 -5 0 -6 5 -3 10 3 6 4 10 1 10 -3 0 -7 -2 -7 -5z"/>
<path d="M25780 22785 c0 -8 2 -15 4 -15 2 0 6 7 10 15 3 8 1 15 -4 15 -6 0
-10 -7 -10 -15z"/>
<path d="M25800 22771 c-15 -37 -11 -54 10 -40 11 8 12 12 3 16 -10 3 -10 10
-2 25 6 11 9 22 6 24 -2 3 -10 -9 -17 -25z"/>
<path d="M22906 22755 c4 -8 2 -15 -4 -15 -6 0 -13 6 -15 13 -3 7 -6 5 -6 -5
-1 -19 24 -25 34 -8 3 6 14 10 23 10 14 0 13 -2 -2 -13 -17 -12 -15 -14 15
-14 19 0 28 2 22 5 -7 2 -13 8 -13 13 0 6 6 7 13 3 7 -4 9 -3 4 2 -5 5 -13 10
-18 10 -5 1 -10 2 -11 3 -2 2 -13 4 -25 7 -17 3 -21 0 -17 -11z"/>
<path d="M25765 22740 c-3 -5 -1 -10 4 -10 6 0 11 5 11 10 0 6 -2 10 -4 10 -3
0 -8 -4 -11 -10z"/>
<path d="M25175 22700 c-13 -6 -15 -9 -5 -9 13 -1 13 -2 0 -11 -8 -5 -12 -10
-8 -10 3 0 12 -2 20 -5 9 -4 13 3 13 20 0 14 0 25 0 24 0 0 -9 -4 -20 -9z"/>
<path d="M23062 22693 c-16 -6 -5 -23 15 -23 9 0 25 -7 35 -17 11 -9 18 -11
18 -5 0 7 -6 12 -12 12 -9 0 -8 4 2 10 13 8 12 10 -5 11 -11 1 -26 1 -34 0 -7
-2 -10 2 -6 8 7 12 6 12 -13 4z"/>
<path d="M25080 22660 c-21 -11 -28 -19 -18 -20 9 0 20 5 23 10 4 7 13 7 26 0
13 -7 19 -7 19 0 0 5 -5 10 -11 10 -5 0 -7 5 -4 10 8 13 6 13 -35 -10z"/>
<path d="M25140 22667 c8 -8 26 -18 40 -22 32 -9 25 -3 -20 19 -25 12 -31 13
-20 3z"/>
<path d="M25761 22664 c0 -11 3 -14 6 -6 3 7 2 16 -1 19 -3 4 -6 -2 -5 -13z"/>
<path d="M23043 22656 c0 -6 11 -11 24 -11 13 0 23 3 23 6 0 4 -10 9 -23 11
-13 3 -24 0 -24 -6z"/>
<path d="M22922 22629 c10 -5 22 -17 27 -27 9 -14 10 -13 9 8 -2 20 -8 26 -28
28 -21 1 -22 0 -8 -9z"/>
<path d="M23203 22626 c0 -8 8 -12 21 -9 18 4 18 2 -4 -12 -18 -12 -19 -14 -5
-9 11 4 28 6 38 6 25 -1 21 5 -13 23 -35 18 -37 18 -37 1z"/>
<path d="M25010 22607 c14 -8 27 -12 30 -10 7 6 -23 23 -40 23 -8 0 -4 -6 10
-13z"/>
<path d="M23290 22601 c0 -5 6 -11 13 -14 6 -2 9 -7 6 -11 -4 -4 -18 -1 -33 5
-18 9 -32 9 -48 2 -22 -10 -22 -10 7 -10 17 -1 49 -3 73 -6 38 -5 42 -4 31 9
-17 21 -49 37 -49 25z"/>
<path d="M24978 22597 c12 -7 19 -16 15 -21 -4 -4 1 -4 11 0 17 6 16 8 -5 20
-13 7 -28 13 -34 13 -5 0 0 -5 13 -12z"/>
<path d="M24880 22586 c0 -2 7 -7 16 -10 8 -3 12 -2 9 4 -6 10 -25 14 -25 6z"/>
<path d="M24952 22581 c-11 -7 -11 -9 0 -14 9 -3 15 1 15 9 0 8 -1 14 -1 14
-1 0 -7 -4 -14 -9z"/>
<path d="M24835 22570 c-16 -7 -14 -8 12 -7 17 1 29 5 26 10 -5 9 -12 8 -38
-3z"/>
<path d="M23441 22544 c0 -11 3 -14 6 -6 3 7 2 16 -1 19 -3 4 -6 -2 -5 -13z"/>
<path d="M24745 22540 c-3 -5 -2 -10 4 -10 5 0 13 5 16 10 3 6 2 10 -4 10 -5
0 -13 -4 -16 -10z"/>
<path d="M23467 22533 c-12 -12 -7 -21 14 -26 13 -3 28 1 37 9 13 13 11 14
-14 9 -22 -5 -25 -4 -14 4 13 9 13 11 -1 11 -9 0 -19 -3 -22 -7z"/>
<path d="M24774 22529 c-4 -7 -20 -8 -41 -4 -24 4 -33 3 -28 -4 3 -6 0 -11 -7
-11 -9 0 -9 -3 2 -10 17 -11 77 -14 67 -4 -4 4 3 15 15 25 11 11 16 19 10 19
-6 0 -14 -5 -18 -11z m-44 -19 c0 -5 -5 -10 -11 -10 -5 0 -7 5 -4 10 3 6 8 10
11 10 2 0 4 -4 4 -10z"/>
<path d="M23558 22523 c7 -3 16 -2 19 1 4 3 -2 6 -13 5 -11 0 -14 -3 -6 -6z"/>
<path d="M23595 22509 c5 -7 -5 -9 -27 -6 -18 2 -24 2 -13 -1 l20 -4 -20 -8
c-14 -5 -7 -7 22 -6 23 0 36 4 30 8 -9 6 -9 8 1 8 7 0 10 5 7 10 -3 6 -11 10
-16 10 -6 0 -7 -5 -4 -11z"/>
<path d="M24614 22505 c-10 -7 -3 -10 28 -11 24 0 34 1 23 4 l-20 5 20 8 c16
6 15 7 -9 6 -15 -1 -35 -6 -42 -12z"/>
<path d="M23645 22501 c-9 -16 9 -20 23 -5 10 12 10 14 -2 14 -8 0 -17 -4 -21
-9z"/>
<path d="M24518 22493 c6 -2 18 -2 25 0 6 3 1 5 -13 5 -14 0 -19 -2 -12 -5z"/>
<path d="M23001 22468 c-1 -10 6 -18 14 -18 8 0 15 -5 15 -11 0 -6 -7 -8 -17
-4 -14 5 -15 3 -6 -6 6 -6 16 -8 22 -5 12 8 10 41 -4 53 -4 5 -5 2 -1 -4 4 -7
3 -13 -3 -13 -5 0 -12 6 -14 13 -3 7 -6 5 -6 -5z"/>
<path d="M25607 22473 c-10 -10 -8 -23 4 -23 5 0 8 4 5 9 -4 5 0 12 6 14 7 3
8 6 2 6 -6 1 -14 -2 -17 -6z"/>
<path d="M23925 22459 c-10 -16 -2 -20 51 -23 62 -4 62 -4 44 -17 -11 -8 -9
-9 10 -3 49 13 57 23 20 25 -32 2 -50 4 -75 9 -5 1 -1 5 10 10 16 7 13 9 -17
9 -20 1 -40 -4 -43 -10z"/>
<path d="M24042 22458 c13 -3 48 -6 78 -6 30 0 65 3 78 6 13 4 -22 7 -78 7
-56 0 -91 -3 -78 -7z"/>
<path d="M24255 22460 c3 -5 8 -10 11 -10 2 0 4 5 4 10 0 6 -5 10 -11 10 -5 0
-7 -4 -4 -10z"/>
<path d="M24290 22455 c0 -9 5 -15 11 -13 6 2 11 8 11 13 0 5 -5 11 -11 13 -6
2 -11 -4 -11 -13z"/>
<path d="M24190 22441 l-35 -6 34 -13 c19 -7 37 -10 39 -7 3 3 -1 5 -9 5 -10
1 -8 5 5 15 21 16 21 16 -34 6z"/>
<path d="M24270 22415 c0 -8 5 -15 10 -15 6 0 10 4 10 9 0 5 8 12 18 14 10 3
6 5 -10 6 -19 1 -28 -4 -28 -14z"/>
<path d="M24070 22393 c0 -14 -2 -15 -9 -4 -5 8 -7 -6 -4 -35 2 -27 5 -59 5
-72 0 -13 3 -21 6 -18 6 6 11 146 6 146 -2 0 -4 -8 -4 -17z"/>
<path d="M24016 22384 c-5 -14 -4 -15 9 -4 17 14 19 20 6 20 -5 0 -12 -7 -15
-16z"/>
<path d="M23100 22355 c-7 -9 -11 -17 -9 -20 3 -2 10 5 17 15 14 24 10 26 -8
5z"/>
<path d="M23129 22303 c-13 -16 -12 -17 4 -4 16 13 21 21 13 21 -2 0 -10 -8
-17 -17z"/>
<path d="M23845 22310 c-3 -5 3 -10 15 -10 12 0 18 -4 15 -11 -4 -6 -14 -8
-22 -5 -12 5 -14 1 -11 -19 3 -14 1 -25 -3 -25 -5 0 -9 -5 -9 -11 0 -8 4 -8
14 1 8 6 12 19 9 27 -4 11 -2 14 5 9 6 -3 16 2 22 14 6 11 15 19 19 17 8 -2
11 3 11 19 0 4 -6 1 -14 -5 -10 -8 -16 -9 -21 -1 -8 13 -22 13 -30 0z"/>
<path d="M23262 22228 c-15 -15 -16 -31 0 -22 8 5 9 2 4 -12 -4 -10 -3 -15 1
-10 6 6 13 56 8 56 -1 0 -6 -5 -13 -12z"/>
<path d="M23217 22202 c6 -15 5 -16 -13 -2 -17 14 -18 14 -6 -2 8 -9 20 -14
28 -11 9 3 14 -1 14 -13 0 -9 3 -15 6 -11 9 9 -5 45 -21 51 -10 3 -12 0 -8
-12z"/>
<path d="M25448 22135 c-3 -13 -2 -22 3 -20 4 3 10 -1 13 -7 3 -7 3 1 1 17 -4
28 -3 29 10 11 8 -11 15 -15 15 -10 0 11 -21 34 -31 34 -4 0 -9 -11 -11 -25z"/>
<path d="M24057 22119 c-10 -35 -9 -39 8 -39 16 0 18 14 6 44 -7 18 -8 18 -14
-5z"/>
<path d="M23609 22077 c0 -1 -2 -13 -3 -26 -2 -19 -1 -21 9 -10 6 8 16 19 23
24 9 8 7 11 -8 12 -11 1 -20 1 -21 0z"/>
<path d="M25364 21992 c4 -40 12 -49 18 -24 3 10 -1 27 -8 37 -13 17 -14 16
-10 -13z"/>
<path d="M23529 21997 c0 -1 -2 -13 -3 -26 -2 -19 -1 -21 9 -10 6 8 16 19 23
24 9 8 7 11 -8 12 -11 1 -20 1 -21 0z"/>
<path d="M23449 21916 c-6 -6 -3 -48 4 -53 5 -3 3 -10 -4 -15 -11 -8 -11 -9
-1 -6 8 2 13 7 13 11 -2 13 34 44 44 39 6 -3 4 1 -2 8 -10 10 -48 22 -54 16z
m34 -22 c-7 -20 -29 -23 -29 -5 0 9 8 17 17 17 9 0 15 -6 12 -12z"/>
<path d="M23252 21867 l-22 -23 23 0 c17 0 23 6 23 23 0 13 -1 23 -1 23 -1 0
-11 -10 -23 -23z"/>
<path d="M23365 21830 c-3 -5 3 -10 15 -10 12 0 18 -4 15 -11 -4 -6 -14 -8
-22 -5 -11 5 -14 -1 -11 -22 2 -18 -1 -26 -10 -24 -8 1 -11 -2 -7 -8 10 -17
35 8 28 27 -4 11 -2 14 5 9 6 -3 16 2 22 14 6 11 15 19 19 17 8 -2 11 3 11 19
0 4 -6 1 -14 -5 -10 -8 -16 -9 -21 -1 -8 13 -22 13 -30 0z"/>
<path d="M21968 21823 c7 -3 16 -2 19 1 4 3 -2 6 -13 5 -11 0 -14 -3 -6 -6z"/>
<path d="M21936 21781 c10 -10 21 -14 23 -8 4 10 -17 27 -33 27 -5 0 -1 -8 10
-19z"/>
<path d="M23180 21789 c0 -6 -7 -9 -15 -6 -8 4 -17 1 -21 -5 -4 -7 -3 -8 4 -4
7 4 12 3 12 -3 0 -16 33 -5 36 12 1 9 -2 17 -7 17 -5 0 -9 -5 -9 -11z"/>
<path d="M22376 21781 c-18 -7 -18 -8 4 -14 27 -7 39 -1 24 12 -5 5 -18 5 -28
2z"/>
<path d="M22265 21770 c3 -5 8 -10 11 -10 2 0 4 5 4 10 0 6 -5 10 -11 10 -5 0
-7 -4 -4 -10z"/>
<path d="M22300 21772 c0 -4 12 -8 28 -9 23 -1 24 -1 7 7 -26 11 -35 12 -35 2z"/>
<path d="M22446 21772 c-3 -4 4 -9 15 -9 23 -2 25 3 4 10 -8 4 -16 3 -19 -1z"/>
<path d="M22010 21751 c0 -14 50 -63 60 -59 4 2 -7 18 -26 36 -19 19 -34 29
-34 23z"/>
<path d="M22043 21749 c9 -5 21 -17 26 -26 7 -14 9 -13 8 7 -2 19 -8 25 -27
27 -20 1 -21 -1 -7 -8z"/>
<path d="M22568 21743 c7 -3 16 -2 19 1 4 3 -2 6 -13 5 -11 0 -14 -3 -6 -6z"/>
<path d="M22586 21731 c-27 -10 -7 -20 27 -14 21 4 25 8 15 14 -15 10 -17 10
-42 0z"/>
<path d="M22010 21712 c0 -12 19 -26 26 -19 2 2 -2 10 -11 17 -9 8 -15 8 -15
2z"/>
<path d="M22695 21704 c-9 -14 -15 -15 -33 -5 -13 7 -28 10 -35 7 -7 -2 -4 -5
6 -5 9 -1 17 -5 17 -11 0 -5 15 -9 34 -7 19 1 32 5 29 10 -2 4 1 7 7 7 6 0 8
5 5 10 -9 14 -19 12 -30 -6z"/>
<path d="M22353 21673 c9 -2 25 -2 35 0 9 3 1 5 -18 5 -19 0 -27 -2 -17 -5z"/>
<path d="M22170 21660 c-11 -8 -7 -9 15 -4 37 8 45 14 19 14 -10 0 -26 -5 -34
-10z"/>
<path d="M22351 21646 c-14 -8 -19 -16 -13 -20 6 -3 13 -2 17 4 3 5 15 10 26
10 11 0 17 5 14 10 -8 13 -15 12 -44 -4z"/>
<path d="M25203 21625 c0 -8 4 -12 9 -9 4 3 8 9 8 15 0 5 -4 9 -8 9 -5 0 -9
-7 -9 -15z"/>
<path d="M22680 21591 c-17 -5 -21 -9 -12 -15 15 -9 52 1 52 15 0 10 -4 10
-40 0z"/>
<path d="M22738 21593 c7 -3 16 -2 19 1 4 3 -2 6 -13 5 -11 0 -14 -3 -6 -6z"/>
<path d="M22938 21593 c6 -2 18 -2 25 0 6 3 1 5 -13 5 -14 0 -19 -2 -12 -5z"/>
<path d="M23734 21568 c1 -17 8 -34 14 -36 15 -5 16 14 2 23 -8 5 -8 11 -1 19
6 7 8 16 4 19 -14 15 -21 5 -19 -25z"/>
<path d="M22610 21575 c14 -8 32 -14 40 -14 9 0 4 6 -10 14 -14 8 -32 14 -40
14 -9 0 -4 -6 10 -14z"/>
<path d="M22785 21581 c-3 -5 -1 -12 5 -16 5 -3 10 1 10 9 0 18 -6 21 -15 7z"/>
<path d="M22985 21570 c3 -5 14 -10 23 -10 15 0 15 2 2 10 -20 13 -33 13 -25
0z"/>
<path d="M22687 21561 c-11 -4 5 -7 38 -7 33 0 49 3 38 7 -10 4 -27 8 -38 8
-11 0 -28 -4 -38 -8z"/>
<path d="M22893 21563 c9 -2 23 -2 30 0 6 3 -1 5 -18 5 -16 0 -22 -2 -12 -5z"/>
<path d="M22948 21553 c6 -2 18 -2 25 0 6 3 1 5 -13 5 -14 0 -19 -2 -12 -5z"/>
<path d="M23781 21501 c-10 -17 -9 -21 3 -21 10 0 13 6 9 17 -4 10 -2 14 4 10
6 -4 13 -15 16 -26 3 -15 1 -18 -12 -14 -13 4 -13 2 2 -7 9 -6 15 -15 12 -20
-3 -5 -1 -11 5 -15 6 -4 11 6 11 22 1 15 3 38 4 51 2 16 -1 20 -10 12 -7 -6
-15 -6 -22 1 -8 8 -14 5 -22 -10z"/>
<path d="M23866 21428 c5 -8 2 -9 -11 -4 -14 5 -16 4 -7 -7 7 -8 8 -18 4 -23
-4 -4 1 -2 11 5 19 15 23 41 6 41 -5 0 -7 -5 -3 -12z"/>
<path d="M23891 21409 c-18 -24 -20 -33 -11 -42 10 -9 14 -9 17 1 3 6 10 9 16
6 8 -5 8 -2 0 7 -14 14 -18 33 -5 25 4 -2 8 4 8 15 0 10 -1 19 -1 19 -1 0 -12
-14 -24 -31z"/>
<path d="M23907 21353 c-4 -3 -7 -13 -7 -21 0 -18 13 -7 16 13 2 17 1 18 -9 8z"/>
<path d="M23970 21345 c0 -8 7 -15 16 -15 14 0 14 3 4 15 -7 8 -14 15 -16 15
-2 0 -4 -7 -4 -15z"/>
<path d="M24967 21273 c-4 -3 -7 -11 -7 -17 0 -6 5 -5 12 2 6 6 9 14 7 17 -3
3 -9 2 -12 -2z"/>
<path d="M24030 21187 c0 -5 7 -7 15 -4 8 4 17 2 20 -3 4 -6 2 -10 -4 -10 -12
0 -8 -28 7 -40 9 -7 9 -7 2 2 -5 6 -5 18 0 28 5 9 6 21 2 27 -9 12 -42 13 -42
0z"/>
<path d="M24890 21185 c-10 -12 -10 -15 4 -15 9 0 16 7 16 15 0 8 -2 15 -4 15
-2 0 -9 -7 -16 -15z"/>
<path d="M24100 21107 c0 -5 -5 -5 -12 -1 -6 4 -9 3 -5 -2 7 -13 70 -9 75 4 2
7 -8 10 -27 9 -17 -1 -31 -6 -31 -10z"/>
<path d="M24134 21069 c-3 -6 -2 -15 3 -20 5 -5 9 -1 9 11 0 23 -2 24 -12 9z"/>
<path d="M24727 20861 c-11 -14 -10 -15 7 -1 18 13 19 13 14 0 -4 -11 1 -16
16 -17 11 0 16 1 9 4 -7 2 -10 10 -7 17 7 18 -24 16 -39 -3z"/>
<path d="M24740 20821 c0 -7 -5 -9 -12 -5 -7 5 -8 3 -3 -5 5 -9 10 -10 18 -2
6 6 8 14 4 18 -4 3 -7 1 -7 -6z"/>
<path d="M24550 20794 c0 -8 43 -43 54 -44 5 0 -3 11 -18 25 -27 25 -36 30
-36 19z"/>
<path d="M24603 20785 c6 -6 23 -10 37 -8 14 2 31 5 38 5 28 3 -1 12 -42 13
-34 2 -42 -1 -33 -10z"/>
<path d="M24500 20760 c0 -11 4 -20 8 -20 4 0 8 9 8 20 0 11 -4 20 -8 20 -4 0
-8 -9 -8 -20z"/>
<path d="M25545 22260 c-3 -5 -1 -10 4 -10 6 0 11 5 11 10 0 6 -2 10 -4 10 -3
0 -8 -4 -11 -10z"/>
<path d="M10907 14892 c-14 -15 -31 -40 -36 -55 -7 -18 -11 -167 -11 -418 0
-370 1 -392 20 -429 12 -24 37 -49 63 -65 l44 -25 394 0 395 0 47 30 c55 35
62 53 15 39 -18 -5 -198 -9 -401 -9 -308 0 -374 2 -404 15 -48 20 -71 41 -94
87 -18 35 -19 64 -19 417 0 236 4 390 10 407 14 37 8 39 -23 6z"/>
<path d="M46475 14371 c-59 -26 -101 -66 -125 -117 -33 -67 -26 -173 15 -240
59 -96 183 -149 291 -125 64 15 133 72 164 137 29 60 30 153 3 215 -22 49 -88
114 -139 135 -48 20 -160 18 -209 -5z"/>
<path d="M45699 14006 c-154 -8 -221 -15 -232 -25 -35 -28 -56 -80 -77 -181
-52 -259 -58 -277 -89 -261 -9 5 -59 43 -111 85 -77 62 -101 76 -125 74 -27
-3 -30 -6 -30 -38 0 -32 8 -41 115 -128 63 -51 139 -117 169 -146 l54 -54 -38
-34 c-73 -64 -78 -86 -80 -403 -1 -312 -4 -330 -91 -677 -24 -97 -44 -193 -44
-213 0 -48 24 -91 60 -110 34 -18 119 -20 154 -4 31 14 73 107 122 267 69 227
94 399 107 730 l2 63 135 -162 c74 -89 139 -169 143 -176 13 -22 -31 -137
-144 -381 -80 -171 -99 -221 -99 -258 0 -25 5 -54 10 -65 25 -46 117 -64 170
-33 48 29 141 181 301 494 68 133 74 150 72 200 -1 30 -11 82 -22 114 -12 33
-19 61 -17 63 2 2 130 -98 284 -222 l280 -226 -78 -74 c-48 -45 -87 -75 -100
-75 -35 0 -57 -17 -73 -58 -19 -48 -28 -55 -109 -81 -37 -12 -82 -32 -100 -44
-31 -21 -78 -80 -78 -98 0 -10 1157 -10 1460 0 188 6 195 7 192 26 -7 37 -57
77 -158 125 -115 54 -136 75 -164 169 -26 87 -51 111 -116 111 -72 0 -87 7
-108 52 -22 46 -82 93 -140 109 -23 6 -73 9 -112 7 -79 -5 -145 -36 -183 -84
l-20 -25 -323 261 c-178 145 -325 266 -326 271 -2 5 67 130 155 277 l158 267
0 85 c0 77 -3 92 -36 160 -57 118 -182 260 -270 306 -30 15 -151 34 -204 32
-16 -1 -127 -6 -246 -12z m-28 -376 c-52 -50 -96 -88 -98 -86 -3 3 20 116 33
159 5 14 17 17 82 17 l77 -1 -94 -89z m313 -474 l-58 -105 -58 51 c-32 27 -58
53 -58 56 0 8 223 111 229 106 2 -2 -23 -50 -55 -108z"/>
<path d="M26133 7415 c-198 -43 -369 -200 -434 -396 -34 -105 -34 -262 0 -367
56 -171 194 -313 364 -372 87 -31 258 -38 347 -15 263 68 440 300 440 575 0
163 -57 298 -175 415 -144 145 -343 203 -542 160z"/>
<path d="M28890 7414 c-274 -72 -467 -339 -447 -618 11 -152 72 -281 185 -387
120 -114 234 -159 408 -159 177 0 296 49 419 174 122 123 175 248 175 414 0
160 -59 294 -184 417 -87 87 -163 131 -271 160 -73 19 -212 18 -285 -1z"/>
<path d="M31670 7414 c-261 -56 -460 -303 -460 -572 0 -109 14 -171 62 -271
55 -114 141 -201 258 -258 101 -49 162 -63 278 -63 227 0 424 123 527 328 113
225 70 486 -110 668 -151 152 -349 213 -555 168z"/>
<path d="M54404 40064 c-77 -16 -106 -28 -160 -64 -50 -35 -101 -130 -153
-285 -146 -437 -21 -722 359 -824 98 -26 201 -38 390 -46 237 -9 304 -15 446
-41 524 -95 836 -352 1008 -828 6 -18 7 -18 29 1 36 33 64 44 120 44 145 2
288 -148 347 -365 29 -106 26 -296 -6 -367 -65 -141 -204 -198 -329 -134 -27
13 -50 23 -52 21 -6 -6 -18 -374 -18 -566 0 -189 2 -209 22 -252 28 -61 96
-134 151 -162 l44 -22 -78 -73 c-91 -85 -243 -188 -333 -226 -149 -62 -348
-108 -546 -125 -170 -15 -174 -16 -169 -37 4 -20 83 -653 93 -748 6 -56 8 -60
30 -57 47 7 250 89 323 131 285 163 560 486 820 961 l68 125 207 0 c220 1 273
8 418 58 360 123 650 430 793 837 16 47 46 159 67 250 20 91 66 260 101 375
83 271 123 424 130 505 l6 65 -78 13 c-310 49 -1478 548 -2664 1138 -560 278
-923 471 -1226 651 l-100 60 -60 -13z"/>
<path d="M15120 39069 c-376 -254 -1539 -853 -2530 -1301 -860 -390 -1507
-636 -1615 -616 -22 5 -31 -9 -123 -191 -151 -297 -239 -516 -268 -669 -40
-211 6 -462 133 -717 50 -102 191 -326 213 -340 5 -3 3 -22 -5 -46 -21 -57
-43 -188 -50 -294 -12 -173 30 -490 89 -662 57 -168 159 -309 264 -366 147
-80 401 -75 670 12 48 16 88 28 89 27 1 0 -9 -109 -22 -241 -34 -353 -48 -593
-43 -741 3 -122 6 -134 30 -171 75 -113 330 -270 688 -423 481 -206 1008 -355
1114 -314 43 17 56 223 56 912 0 532 1 563 18 558 9 -3 64 -12 122 -20 378
-55 826 -44 983 23 129 56 172 212 170 626 -1 246 -14 431 -58 800 -13 116
-25 223 -27 240 -6 63 -135 106 -318 106 -188 0 -271 -28 -397 -136 -186 -160
-434 -261 -618 -253 -65 2 -90 8 -112 24 -63 47 -73 105 -80 450 -5 267 3 530
29 927 l11 177 126 0 c140 0 249 11 388 40 115 24 151 39 203 86 106 96 142
280 105 539 -14 105 -11 145 18 202 36 69 139 123 208 109 17 -3 85 -26 150
-51 168 -63 219 -75 344 -82 182 -9 297 29 394 132 98 104 138 235 128 420
-16 287 -163 509 -377 573 l-56 16 42 72 c86 153 113 299 76 420 -20 63 -82
163 -107 171 -5 1 -30 -11 -55 -28z m-2322 -2216 c49 -23 136 -107 189 -180
83 -117 116 -272 117 -548 0 -216 -31 -401 -85 -507 -11 -21 -20 -54 -20 -75
-1 -21 -3 -30 -6 -20 -4 15 -11 12 -49 -23 -52 -48 -80 -60 -141 -60 -123 0
-216 113 -282 345 -53 185 -65 277 -66 510 0 165 4 227 18 289 52 237 176 339
325 269z"/>
<path d="M58565 35023 c-147 -9 -723 -83 -778 -99 -9 -3 -15 -9 -12 -14 7 -11
-21 -29 -255 -163 -102 -58 -257 -147 -345 -197 -88 -51 -173 -100 -190 -110
-16 -9 -104 -60 -195 -112 -91 -52 -289 -166 -440 -253 -151 -87 -312 -180
-358 -206 -45 -27 -84 -49 -86 -49 -2 0 -42 -22 -90 -50 -48 -27 -88 -50 -90
-50 -2 0 -6 21 -9 48 -4 26 -9 61 -11 77 -3 17 -19 143 -36 280 -17 138 -34
283 -39 323 -5 41 -11 76 -14 78 -2 3 -96 -13 -208 -35 -333 -65 -589 -111
-615 -111 -17 0 -30 -9 -42 -29 -13 -23 -22 -29 -42 -25 -20 4 -47 -13 -135
-84 -162 -131 -588 -468 -682 -541 -46 -35 -83 -65 -83 -66 0 -1 100 15 223
36 613 107 585 103 672 91 161 -23 319 -131 392 -268 18 -34 74 -203 133 -399
56 -187 161 -540 234 -785 73 -245 283 -948 467 -1564 l333 -1118 51 6 c288
37 378 33 557 -24 266 -84 550 -158 1118 -290 499 -116 885 -209 1060 -256
145 -39 261 -65 640 -145 153 -32 325 -67 326 -65 0 0 -6 69 -14 151 -22 227
-21 717 1 875 19 139 52 336 68 412 l11 51 30 -54 c17 -30 121 -234 232 -454
191 -379 273 -548 361 -746 l39 -86 43 33 c114 87 269 120 521 111 201 -7 377
-32 787 -113 509 -101 583 -112 910 -134 316 -22 563 -50 655 -75 30 -8 56
-13 57 -11 12 12 -82 70 -178 110 -180 76 -231 120 -269 231 -38 109 -41 163
-19 298 29 172 24 302 -14 378 -35 73 -120 164 -270 292 -131 112 -187 169
-211 215 -8 16 -39 103 -69 193 -365 1103 -1039 2535 -1560 3313 -300 449
-552 657 -1052 871 -353 151 -864 276 -1240 304 -136 11 -163 11 -270 4z"/>
<path d="M47765 33814 c-22 -16 -39 -18 -30 -4 3 6 1 10 -4 10 -16 0 -13 -16
4 -30 8 -7 13 -15 11 -19 -6 -9 87 -7 102 2 6 5 12 14 11 20 0 9 -2 8 -6 -1
-2 -6 -10 -9 -15 -6 -7 4 -8 2 -4 -4 8 -14 -1 -14 -29 -2 -11 5 -15 9 -8 9 7
1 17 9 22 20 9 16 7 19 -12 19 -13 0 -32 -7 -42 -14z m33 -11 c-10 -2 -18 -9
-18 -14 0 -5 -7 -9 -15 -9 -8 0 -15 4 -15 9 0 12 19 20 45 19 17 0 17 -1 3 -5z"/>
<path d="M47898 33805 c3 -18 11 -22 49 -24 26 -1 54 -6 63 -11 9 -5 22 -5 30
0 11 7 12 11 0 24 -11 14 -10 16 6 11 11 -4 9 0 -6 8 -14 9 -29 12 -35 7 -6
-5 -28 -10 -50 -13 -40 -4 -40 -4 8 -5 30 -1 47 2 47 10 0 6 2 9 5 6 3 -3 3
-12 0 -19 -8 -22 -100 -10 -99 12 1 9 -4 16 -11 16 -6 0 -10 -10 -7 -22z"/>
<path d="M48085 33821 c5 -9 1 -19 -10 -28 -16 -11 -16 -13 -3 -13 21 0 32 30
17 44 -9 8 -10 7 -4 -3z"/>
<path d="M47634 33805 c-16 -13 -16 -14 -1 -9 9 3 17 1 17 -5 0 -6 -6 -11 -12
-11 -7 0 -5 -5 5 -11 10 -6 21 -8 24 -5 4 3 1 6 -7 6 -9 0 -10 4 -2 13 6 7 7
18 3 25 -5 9 -12 8 -27 -3z"/>
<path d="M47531 33801 c-11 -7 -9 -10 8 -16 11 -3 21 -11 21 -16 0 -14 44 -4
48 12 3 11 1 11 -7 -1 -9 -13 -11 -13 -11 2 0 9 6 19 13 21 9 4 9 6 -1 6 -7 1
-15 -6 -18 -14 -7 -18 -25 -20 -20 -2 1 6 1 9 -1 5 -3 -5 -9 -8 -14 -8 -6 0
-7 5 -4 10 8 12 4 12 -14 1z"/>
<path d="M47868 33785 c-3 -14 -1 -25 3 -25 5 0 9 11 9 25 0 14 -2 25 -4 25
-2 0 -6 -11 -8 -25z"/>
<path d="M48190 33801 c0 -6 -7 -7 -17 -4 -11 4 -14 3 -9 -5 4 -7 1 -12 -8
-12 -8 0 -18 -5 -22 -12 -5 -8 -2 -9 9 -5 10 4 24 10 34 14 11 4 14 3 9 -5 -5
-8 -1 -10 10 -5 13 5 14 8 5 11 -10 3 -10 6 -1 12 9 5 9 9 1 14 -6 4 -11 3
-11 -3z"/>
<path d="M48228 33803 c7 -3 16 -2 19 1 4 3 -2 6 -13 5 -11 0 -14 -3 -6 -6z"/>
<path d="M47450 33791 c0 -7 -5 -9 -12 -5 -7 5 -8 3 -3 -5 5 -9 10 -10 18 -2
6 6 8 14 4 18 -4 3 -7 1 -7 -6z"/>
<path d="M47475 33790 c-3 -5 -3 -10 2 -10 4 0 1 -5 -7 -11 -12 -9 -12 -10 3
-5 10 3 23 6 28 6 4 0 6 7 3 15 -7 17 -20 20 -29 5z"/>
<path d="M47699 33787 c6 -8 8 -17 4 -21 -4 -4 0 -4 10 -1 14 6 14 9 2 21 -17
18 -31 18 -16 1z"/>
<path d="M48110 33790 c-8 -5 -11 -12 -8 -15 4 -4 17 0 30 9 24 17 5 23 -22 6z"/>
<path d="M48255 33790 c-4 -6 -10 -8 -15 -5 -4 3 -10 -1 -13 -8 -5 -14 36 -18
49 -4 11 11 26 9 19 -3 -3 -5 1 -10 9 -10 8 0 18 5 21 10 3 6 11 10 16 10 6 0
7 -4 4 -10 -8 -12 5 -13 23 -1 10 6 8 10 -9 14 -13 3 -28 2 -34 -3 -6 -5 -18
-3 -29 6 -23 17 -33 18 -41 4z m25 -4 c0 -2 -7 -7 -16 -10 -8 -3 -12 -2 -9 4
6 10 25 14 25 6z"/>
<path d="M47383 33776 c0 -6 11 -12 24 -12 26 -2 23 11 -5 18 -10 3 -19 0 -19
-6z"/>
<path d="M47898 33763 c7 -3 16 -2 19 1 4 3 -2 6 -13 5 -11 0 -14 -3 -6 -6z"/>
<path d="M47223 33744 c-39 -17 -44 -28 -7 -14 32 13 37 12 29 0 -8 -13 5 -13
25 0 12 8 12 10 -5 11 l-20 0 20 9 c12 5 14 9 5 8 -8 0 -30 -6 -47 -14z"/>
<path d="M48454 33751 c7 -10 3 -12 -15 -6 -19 5 -21 4 -9 -4 20 -14 47 -14
56 2 4 6 4 9 -1 5 -4 -4 -15 -2 -23 5 -13 10 -14 9 -8 -2z"/>
<path d="M48403 33717 c1 -24 14 -37 37 -36 8 0 4 5 -10 11 -15 6 -20 12 -12
15 16 6 15 20 -2 26 -10 4 -14 -1 -13 -16z"/>
<path d="M48506 33733 c-8 -8 -13 -10 -46 -12 -11 0 -20 -6 -20 -12 0 -6 9 -8
21 -4 16 6 20 4 13 -6 -6 -12 -5 -12 8 -1 9 7 18 9 20 5 3 -4 4 -3 2 3 -1 6 3
17 9 23 6 6 9 11 6 11 -3 0 -9 -3 -13 -7z"/>
<path d="M47165 33721 c6 -11 4 -13 -8 -8 -9 3 -21 -1 -29 -11 -12 -16 -11
-16 6 -2 18 13 19 13 14 0 -4 -11 0 -16 12 -16 12 0 16 6 12 16 -4 11 0 10 16
-4 12 -11 24 -17 26 -15 2 2 -10 15 -27 29 -17 14 -27 19 -22 11z"/>
<path d="M47215 33710 c3 -5 13 -10 21 -10 8 0 12 5 9 10 -3 6 -13 10 -21 10
-8 0 -12 -4 -9 -10z"/>
<path d="M47256 33695 c-3 -9 0 -15 9 -15 8 0 15 7 15 15 0 8 -4 15 -9 15 -5
0 -11 -7 -15 -15z"/>
<path d="M48556 33697 c2 -7 17 -13 33 -12 16 0 27 4 24 8 -3 5 -11 6 -19 3
-8 -3 -14 -1 -14 4 0 6 -7 10 -15 10 -8 0 -12 -6 -9 -13z"/>
<path d="M47094 33686 c-24 -26 -26 -54 -5 -66 12 -6 20 -16 18 -23 -1 -7 6
-11 16 -10 12 1 17 -4 13 -14 -5 -11 -1 -13 16 -7 20 6 21 5 10 -8 -10 -12 -9
-18 3 -28 10 -9 15 -9 15 -1 0 6 -6 11 -12 11 -9 0 -8 3 2 10 9 6 17 5 22 -3
4 -7 8 -7 8 -2 0 13 -16 37 -24 36 -24 -3 -30 0 -16 9 11 8 7 9 -16 5 -30 -5
-30 -4 -29 33 3 50 -6 74 -21 58z m13 -43 c1 -24 0 -25 -6 -8 -7 17 -6 35 2
35 2 0 3 -12 4 -27z"/>
<path d="M48520 33692 c0 -5 7 -9 15 -9 8 0 12 4 9 9 -3 4 -9 8 -15 8 -5 0 -9
-4 -9 -8z"/>
<path d="M47610 33670 c0 -5 5 -10 11 -10 5 0 7 5 4 10 -3 6 -8 10 -11 10 -2
0 -4 -4 -4 -10z"/>
<path d="M47648 33673 c7 -3 16 -2 19 1 4 3 -2 6 -13 5 -11 0 -14 -3 -6 -6z"/>
<path d="M47839 33672 c-2 -6 -26 -13 -54 -17 -36 -5 -46 -4 -35 4 12 9 11 11
-7 11 -14 0 -23 -6 -23 -15 0 -13 -18 -20 -42 -16 -5 0 -8 -3 -8 -9 0 -5 -4
-10 -9 -10 -5 0 -7 10 -4 23 4 19 3 20 -9 6 -7 -8 -21 -18 -31 -22 -10 -4 -16
-11 -13 -16 5 -8 -29 -25 -46 -22 -8 1 -30 -16 -99 -76 -39 -35 -49 -40 -49
-22 0 5 5 7 11 3 7 -4 10 -1 7 6 -2 8 -10 16 -18 18 -8 3 -10 0 -6 -7 5 -8 0
-10 -17 -7 -22 4 -24 1 -21 -25 4 -33 -33 -69 -48 -46 -6 9 -8 9 -8 0 0 -18
47 -46 66 -39 11 4 15 2 11 -8 -6 -15 134 -86 273 -136 131 -48 369 -107 561
-140 233 -39 669 -79 669 -62 0 5 -25 120 -55 255 -49 221 -74 307 -91 307 -3
0 -2 -4 1 -10 3 -5 -1 -10 -9 -10 -9 0 -16 -5 -16 -11 0 -5 5 -7 12 -3 7 4 8
3 4 -4 -4 -7 -3 -12 3 -12 5 0 12 6 14 13 4 8 6 7 6 -3 1 -9 -11 -21 -26 -28
-16 -6 -41 -20 -58 -30 -21 -14 -35 -17 -48 -10 -10 5 -28 8 -40 6 -12 -1 -28
1 -35 6 -7 4 -16 5 -19 2 -4 -3 0 -6 8 -6 8 -1 3 -7 -11 -15 -14 -8 -20 -14
-14 -15 7 0 15 -7 18 -16 3 -9 2 -12 -5 -9 -5 4 -21 -1 -35 -10 -13 -9 -29
-13 -35 -10 -5 4 -16 2 -23 -5 -8 -6 -27 -8 -43 -5 -22 5 -25 4 -13 -5 12 -9
8 -11 -18 -6 -19 3 -31 2 -27 -4 5 -9 -2 -10 -62 -12 -18 0 -33 -5 -33 -9 0
-5 -7 -9 -15 -9 -8 0 -15 8 -15 18 0 13 2 14 9 3 7 -11 11 -10 20 6 12 23 6
33 -18 32 -12 0 -11 -3 4 -9 19 -8 19 -9 -2 -9 -17 -1 -23 -7 -24 -23 0 -22
-1 -22 -9 -3 -7 17 -9 17 -9 3 -1 -10 -4 -17 -8 -16 -5 0 -16 -2 -26 -7 -30
-13 -31 2 0 20 15 9 20 14 10 11 -10 -3 -25 1 -33 9 -9 8 -21 15 -27 15 -7 0
-4 -5 6 -11 21 -12 23 -31 2 -23 -15 6 -23 25 -30 70 -2 16 -9 45 -14 64 -13
43 -14 49 -1 30 9 -13 10 -13 10 0 1 8 3 32 6 53 4 24 2 37 -6 37 -6 0 -9 -4
-5 -10 3 -5 3 -21 -1 -36 l-7 -26 -13 32 c-16 37 -18 62 -4 40 5 -8 10 -10 10
-5 0 25 -19 31 -90 31 -41 -1 -81 -5 -89 -10 -8 -5 -16 -4 -21 4 -5 7 -9 8
-11 2z m-427 -219 c-2 -7 -8 -13 -14 -13 -5 0 -7 -4 -3 -9 9 -16 -33 -33 -53
-22 -15 9 -15 10 -1 11 20 0 34 26 38 69 1 11 5 10 20 -5 10 -10 16 -25 13
-31z m1143 37 c-3 -5 -1 -10 4 -10 6 0 11 5 11 10 0 6 12 10 26 10 14 0 23 -4
19 -10 -4 -6 -11 -7 -17 -4 -6 4 -17 -1 -24 -11 -12 -16 -15 -16 -28 -2 -12
12 -13 17 -3 20 18 8 19 8 12 -3z"/>
<path d="M47384 33472 c4 -6 -1 -24 -10 -39 l-16 -28 21 25 c24 29 25 36 9 46
-7 4 -8 3 -4 -4z"/>
<path d="M48057 33669 c7 -7 15 -10 18 -7 3 3 -2 9 -12 12 -14 6 -15 5 -6 -5z"/>
<path d="M48649 33665 c-7 -14 -5 -27 7 -49 10 -16 12 -17 17 -2 4 10 3 14 -2
11 -5 -3 -12 -1 -16 5 -6 9 8 14 28 11 5 -1 6 3 2 9 -3 6 -10 8 -15 5 -4 -3
-10 0 -12 7 -3 7 -7 8 -9 3z"/>
<path d="M48699 33629 c-1 -8 -1 -19 0 -24 0 -6 -9 -15 -21 -20 -22 -10 -45
-55 -28 -55 5 0 11 9 15 19 3 11 15 23 26 26 10 4 19 13 19 21 0 10 5 12 13 8
7 -5 7 -1 -3 12 -8 10 -16 21 -17 23 -2 2 -4 -2 -4 -10z"/>
<path d="M47446 33585 c-3 -8 2 -19 12 -24 21 -11 57 2 65 23 5 12 0 16 -21
15 -17 -1 -20 -3 -9 -6 9 -2 17 -9 17 -15 0 -5 -7 -8 -15 -4 -8 3 -15 1 -15
-4 0 -5 -8 -6 -17 -3 -11 4 -12 8 -5 11 14 4 16 22 3 22 -5 0 -11 -7 -15 -15z"/>
<path d="M48691 33549 c-12 -12 -20 -24 -17 -27 4 -3 12 1 19 10 6 9 19 18 27
20 9 3 10 7 4 11 -6 3 -21 -3 -33 -14z"/>
<path d="M47443 33535 c0 -7 6 -11 14 -8 7 3 13 6 13 8 0 2 -6 5 -13 8 -8 3
-14 -1 -14 -8z"/>
<path d="M48071 33524 c0 -11 3 -14 6 -6 3 7 2 16 -1 19 -3 4 -6 -2 -5 -13z"/>
<path d="M47190 33520 c0 -5 5 -10 11 -10 5 0 7 5 4 10 -3 6 -8 10 -11 10 -2
0 -4 -4 -4 -10z"/>
<path d="M47226 33509 c3 -5 0 -9 -6 -9 -6 0 -2 -10 10 -22 11 -12 23 -18 27
-15 3 4 1 7 -5 7 -7 0 -12 5 -12 10 0 7 6 7 19 1 15 -9 18 -7 17 12 -1 17 -7
22 -28 23 -15 1 -25 -3 -22 -7z m34 -3 c0 -2 -7 -7 -16 -10 -8 -3 -12 -2 -9 4
6 10 25 14 25 6z"/>
<path d="M48500 33510 c0 -5 5 -10 11 -10 5 0 7 5 4 10 -3 6 -8 10 -11 10 -2
0 -4 -4 -4 -10z"/>
<path d="M48481 33494 c0 -11 3 -14 6 -6 3 7 2 16 -1 19 -3 4 -6 -2 -5 -13z"/>
<path d="M48488 33463 c7 -3 16 -2 19 1 4 3 -2 6 -13 5 -11 0 -14 -3 -6 -6z"/>
<path d="M48310 33430 c-9 -6 -10 -10 -3 -10 6 0 15 5 18 10 8 12 4 12 -15 0z"/>
<path d="M57115 27779 c-71 -6 -167 -8 -213 -6 l-84 5 7 -27 c3 -14 171 -577
372 -1251 201 -674 373 -1258 384 -1299 72 -281 -90 -563 -370 -645 -77 -22
-117 -22 -1421 29 -635 25 -1279 50 -1430 55 -151 6 -441 17 -645 25 -203 8
-376 15 -382 15 -26 0 -12 -398 23 -650 26 -187 55 -278 133 -410 l39 -65 5
-245 c8 -345 33 -527 82 -618 l24 -42 -25 -54 c-51 -112 -61 -241 -38 -511 2
-33 16 -244 29 -470 66 -1084 101 -1624 149 -2295 13 -184 27 -391 31 -460 3
-69 8 -132 10 -140 2 -8 6 -71 10 -139 4 -68 8 -133 10 -145 2 -11 6 -66 10
-121 3 -55 8 -118 10 -140 3 -22 7 -74 10 -115 6 -88 42 -556 50 -650 57 -684
126 -1516 130 -1555 3 -27 19 -201 36 -385 90 -993 130 -1386 235 -2295 19
-165 36 -316 39 -335 3 -19 25 -199 50 -400 25 -201 47 -381 50 -400 135
-1010 187 -1385 216 -1560 11 -69 36 -233 55 -365 44 -306 196 -1303 228
-1500 69 -424 163 -989 218 -1310 34 -198 63 -375 66 -392 l4 -33 815 0 815 0
-6 73 c-8 92 -74 1067 -126 1872 -22 341 -42 656 -45 700 -13 196 -58 936 -95
1555 -22 371 -42 713 -45 760 -10 164 -65 1180 -90 1665 -13 270 -27 533 -30
585 -17 293 -74 1624 -95 2215 -48 1345 -56 2626 -20 3105 13 173 35 335 56
408 45 161 308 290 532 262 185 -24 348 -127 453 -288 89 -136 78 -73 309
-1807 116 -869 352 -2642 525 -3940 530 -3979 945 -7096 955 -7180 19 -143 12
-132 83 -127 92 5 1358 131 1390 138 32 7 31 -6 17 284 -5 107 -11 269 -15
360 -3 91 -7 199 -10 240 -2 41 -7 143 -10 225 -3 83 -8 188 -10 235 -3 47 -7
144 -10 215 -3 72 -8 175 -10 230 -3 55 -16 357 -30 670 -13 314 -27 617 -30
675 -3 58 -7 152 -10 210 -3 58 -7 152 -10 210 -3 58 -12 254 -20 435 -8 182
-17 368 -20 415 -2 47 -7 150 -10 230 -3 80 -8 174 -10 210 -2 36 -7 124 -10
195 -3 72 -7 171 -10 220 -2 50 -7 137 -10 195 -2 58 -7 152 -10 210 -3 58
-19 377 -35 710 -16 333 -32 648 -35 700 -2 52 -7 142 -10 200 -3 58 -12 218
-20 355 -8 138 -24 426 -35 640 -226 4347 -441 7158 -577 7539 -64 180 -200
354 -377 482 l-28 20 26 39 c52 76 78 213 75 398 l-1 118 106 64 c140 84 214
141 312 241 259 262 412 672 481 1284 13 123 17 246 18 595 0 406 -17 835 -34
863 -3 6 -98 61 -211 122 -280 153 -490 272 -855 483 -554 321 -578 333 -755
368 -84 17 -157 19 -635 23 -307 3 -596 0 -670 -5z m-2173 -4784 c325 -37 933
-44 1288 -15 63 5 157 12 208 16 l93 7 -3 -239 c-3 -267 -7 -284 -78 -332
l-33 -22 -791 2 -791 3 -30 23 c-61 48 -64 62 -65 335 l0 249 38 -6 c20 -4 94
-13 164 -21z"/>
<path d="M32980 22690 c-50 -11 -123 -58 -160 -103 -52 -65 -59 -111 -60 -378
0 -274 7 -317 63 -390 17 -23 57 -56 87 -73 l55 -31 3440 0 3440 0 46 21 c58
27 116 85 143 143 20 43 21 62 21 326 0 248 -2 284 -18 318 -27 59 -92 122
-150 148 l-52 23 -3405 2 c-2057 2 -3423 -1 -3450 -6z"/>
</g>
</svg>
